<?xml version="1.0" encoding="UTF-8"?>
<svg version="1.1" xmlns="http://www.w3.org/2000/svg" width="1024" height="1024">
<path d="M0 0 C1.83653986 1.66313266 3.66982363 3.32986726 5.5 5 C9.11196844 8.07168497 9.11196844 8.07168497 13.5390625 9.34765625 C16.16373047 9.08961759 16.16373047 9.08961759 18.88671875 8.5546875 C44.64861406 3.96473877 73.05160256 14.44072243 94 29 C95.48113281 30.02480469 95.48113281 30.02480469 96.9921875 31.0703125 C97.94351563 31.74835938 98.89484375 32.42640625 99.875 33.125 C100.84179688 33.80820312 101.80859375 34.49140625 102.8046875 35.1953125 C103.52914062 35.79085937 104.25359375 36.38640625 105 37 C105 37.66 105 38.32 105 39 C105.556875 39.04125 106.11375 39.0825 106.6875 39.125 C109.57322369 40.21689545 110.84531254 41.98600507 112.703125 44.3828125 C114.1445558 46.2470523 114.1445558 46.2470523 116.6875 48.625 C118.77577531 50.76971518 119.69443132 52.38886264 121 55 C121.99 55.33 122.98 55.66 124 56 C125.60546875 57.99609375 125.60546875 57.99609375 127.1875 60.4375 C127.71730469 61.24058594 128.24710938 62.04367187 128.79296875 62.87109375 C130 65 130 65 130 67 C130.66 67 131.32 67 132 67 C133.38802258 69.34730041 134.76280852 71.70021516 136.125 74.0625 C136.53951416 74.77970215 136.95402832 75.4969043 137.38110352 76.23583984 C139.76245419 80.46328135 141.68987415 84.60205967 143.26953125 89.18676758 C145.14568452 94.63076641 146.52525771 98.42379778 151.625 101.375 C152.470625 101.77976562 153.31625 102.18453125 154.1875 102.6015625 C157.63090471 104.31369984 160.56325868 106.43981836 163.625 108.75 C164.64851562 109.50796875 165.67203125 110.2659375 166.7265625 111.046875 C167.85191406 112.01367188 167.85191406 112.01367188 169 113 C169 113.66 169 114.32 169 115 C169.556875 115.04125 170.11375 115.0825 170.6875 115.125 C173.57322369 116.21689545 174.84531254 117.98600507 176.703125 120.3828125 C178.1445558 122.2470523 178.1445558 122.2470523 180.6875 124.625 C182.7395395 126.73250003 183.90351048 128.30861664 185 131 C185.66 131 186.32 131 187 131 C188.32247289 132.76031864 189.55764141 134.58657125 190.75 136.4375 C193.0993729 140.07446919 195.47778733 143.66748891 198 147.1875 C221.62389421 182.62334132 225.03417786 232.49750125 217.50927734 273.45947266 C215.17157246 285.12110113 212.00007343 296.18016897 207 307 C206.29106875 308.62473924 205.5826955 310.24972212 204.875 311.875 C201.92004751 318.44417724 198.52808032 324.72475833 195 331 C194.34 331 193.68 331 193 331 C192.90332031 331.80244141 192.90332031 331.80244141 192.8046875 332.62109375 C191.65465121 336.02095831 189.44664064 338.39808269 187.125 341.0625 C186.38842163 341.91751099 186.38842163 341.91751099 185.63696289 342.78979492 C177.99099458 351.56199864 169.80099662 360.61838093 160 367 C159.01 367 158.02 367 157 367 C157 367.66 157 368.32 157 369 C154.54341098 370.39897563 152.08480544 371.79419907 149.625 373.1875 C148.94566406 373.57486328 148.26632812 373.96222656 147.56640625 374.36132812 C138.46370633 379.50818182 129.40641273 383.80401816 119.5 387.1875 C118.53191406 387.52974609 117.56382812 387.87199219 116.56640625 388.22460938 C111.1807444 390.08609652 105.89844764 391.54932463 100.29150391 392.5637207 C98.2953816 392.94376231 96.32629725 393.46071818 94.3671875 394 C87.7411727 395.67531831 80.90804324 396.28501267 74.125 397 C73.30818756 397.08682037 72.49137512 397.17364075 71.64981079 397.26309204 C44.16467327 400.08029516 16.42816747 400.1316965 -11.17420959 400.70022583 C-18.73279122 400.85900245 -26.28275602 401.07164973 -33.83630371 401.39979553 C-54.48522345 402.29431719 -75.14801684 402.24335927 -95.8125 402.25 C-97.38677387 402.25110464 -97.38677387 402.25110464 -98.99285126 402.2522316 C-131.87255541 402.27093806 -164.72129454 401.8164181 -197.58501816 400.78239441 C-200.59278431 400.68850563 -203.60064661 400.59849282 -206.60855103 400.50915527 C-226.09206188 399.92150517 -245.38997708 399.27670427 -264.68634033 396.32957458 C-267.834268 395.88116077 -270.98954086 395.5638588 -274.1545105 395.26264954 C-289.41595016 393.80496146 -304.37947873 390.58255144 -319 386 C-319.95390625 385.71640625 -320.9078125 385.4328125 -321.890625 385.140625 C-328.18809363 383.17911838 -334.21575769 380.70849182 -340.25 378.0625 C-340.99475586 377.73862305 -341.73951172 377.41474609 -342.50683594 377.08105469 C-347.63027362 374.78701211 -352.31453747 372.08430632 -357 369 C-357.99515625 368.36191406 -358.9903125 367.72382812 -360.015625 367.06640625 C-370.61996149 359.72387483 -381.16697594 351.33733224 -389 341 C-389 340.34 -389 339.68 -389 339 C-389.66 339 -390.32 339 -391 339 C-392.04349839 337.36021682 -393.03182008 335.68535024 -394 334 C-395.16402344 332.41832031 -395.16402344 332.41832031 -396.3515625 330.8046875 C-399.00839062 327.11204007 -401.07513967 323.27147603 -403.0625 319.1875 C-403.40829102 318.48391357 -403.75408203 317.78032715 -404.11035156 317.05541992 C-406.67005493 311.79400888 -409.05302383 306.52233242 -411 301 C-411.32484375 300.113125 -411.6496875 299.22625 -411.984375 298.3125 C-413.13689426 294.90813542 -414.11004198 291.4800717 -415 288 C-415.2794043 286.92661377 -415.2794043 286.92661377 -415.56445312 285.83154297 C-423.97734917 251.73079568 -421.02716991 211.78529337 -409 179 C-408.76410156 178.33516602 -408.52820313 177.67033203 -408.28515625 176.98535156 C-406.53830118 172.15567298 -404.44699076 167.57851082 -402.125 163 C-401.76913818 162.29649414 -401.41327637 161.59298828 -401.04663086 160.86816406 C-396.26134064 151.49991688 -390.37155109 143.35222054 -384 135 C-383.18402344 133.83210938 -383.18402344 133.83210938 -382.3515625 132.640625 C-381.68253906 131.82851563 -381.68253906 131.82851563 -381 131 C-380.34 131 -379.68 131 -379 131 C-378.34 129.68 -377.68 128.36 -377 127 C-376.34 127 -375.68 127 -375 127 C-374.76152344 126.41992188 -374.52304687 125.83984375 -374.27734375 125.2421875 C-370.71915078 118.99630748 -363.38963681 115.0776605 -357.125 112 C-351.79691966 109.23089909 -349.9173725 106.57879569 -348 101 C-347.484375 99.80375 -346.96875 98.6075 -346.4375 97.375 C-345.963125 96.26125 -345.48875 95.1475 -345 94 C-342.91720021 89.6713987 -340.61690174 85.543805 -338.125 81.4375 C-337.46757812 80.34308594 -336.81015625 79.24867188 -336.1328125 78.12109375 C-334.0039301 75.00575118 -331.72371689 72.59794015 -329 70 C-327.86107697 68.72059307 -326.73482861 67.42972535 -325.625 66.125 C-320.89672047 60.67719967 -315.95163105 55.13307712 -310 51 C-309.01 51 -308.02 51 -307 51 C-306.505 49.515 -306.505 49.515 -306 48 C-302.52559912 45.67286846 -298.71994848 43.90387425 -295 42 C-294.07574219 41.48953125 -293.15148437 40.9790625 -292.19921875 40.453125 C-277.98727186 32.82624341 -263.4337034 30.28847625 -247.53320312 28.60693359 C-240.83596703 27.91172183 -240.83596703 27.91172183 -235.05859375 24.76953125 C-234.37925781 23.85558594 -233.69992187 22.94164062 -233 22 C-232.00041568 20.94803572 -230.98503302 19.91093065 -229.95703125 18.88671875 C-229.18262695 18.0987793 -229.18262695 18.0987793 -228.39257812 17.29492188 C-227.61043945 16.49924805 -227.61043945 16.49924805 -226.8125 15.6875 C-226.01295898 14.86282227 -226.01295898 14.86282227 -225.19726562 14.02148438 C-223.83575044 12.64284322 -222.42159498 11.31660273 -221 10 C-220.34 10 -219.68 10 -219 10 C-218.67 9.01 -218.34 8.02 -218 7 C-216.06912063 5.47655389 -214.16926997 4.10358346 -212.125 2.75 C-211.53928223 2.35522461 -210.95356445 1.96044922 -210.35009766 1.55371094 C-208.57218107 0.36073035 -206.78641478 -0.81979813 -205 -2 C-204.03578125 -2.6496875 -203.0715625 -3.299375 -202.078125 -3.96875 C-195.95990674 -8.00040828 -189.7785109 -11.22776285 -183 -14 C-181.82953125 -14.48339844 -180.6590625 -14.96679688 -179.453125 -15.46484375 C-125.28533451 -37.17079487 -48.27991865 -35.23921225 0 0 Z M-193 25 C-193.91523438 25.61101562 -194.83046875 26.22203125 -195.7734375 26.8515625 C-197.06121094 27.72941406 -197.06121094 27.72941406 -198.375 28.625 C-199.24898437 29.21539062 -200.12296875 29.80578125 -201.0234375 30.4140625 C-201.67570313 30.93742187 -202.32796875 31.46078125 -203 32 C-203 32.66 -203 33.32 -203 34 C-204.32 34.33 -205.64 34.66 -207 35 C-205.74874616 38.75376152 -204.4347596 39.24073289 -201 41 C-200.34 41 -199.68 41 -199 41 C-199 41.66 -199 42.32 -199 43 C-197.60789216 44.37200427 -197.60789216 44.37200427 -195.8125 45.75 C-193.31341917 47.80390044 -191.19512386 49.83842136 -189.1875 52.375 C-188.465625 53.24125 -187.74375 54.1075 -187 55 C-186.34 55 -185.68 55 -185 55 C-184.58234375 55.85851562 -184.58234375 55.85851562 -184.15625 56.734375 C-183.01726208 58.96617566 -181.80063617 61.10870874 -180.5 63.25 C-180.0771875 63.95640625 -179.654375 64.6628125 -179.21875 65.390625 C-178.61546875 66.18726563 -178.61546875 66.18726563 -178 67 C-177.34 67 -176.68 67 -176 67 C-175.76539063 67.81726563 -175.53078125 68.63453125 -175.2890625 69.4765625 C-174.02539257 72.93059365 -172.4767913 75.87553333 -170.67431641 79.06347656 C-164.05019745 90.84798582 -159.87141136 103.08896187 -156 116 C-155.78118164 116.70576172 -155.56236328 117.41152344 -155.33691406 118.13867188 C-149.08040138 138.41694738 -147.29680676 159.90349327 -145.29931641 180.92529297 C-144.90700467 184.95528804 -144.46035638 188.97725968 -144 193 C-143.67 193 -143.34 193 -143 193 C-133.22916603 151.14479634 -131.97531771 108.28010647 -144.4375 66.87255859 C-144.90968886 65.30064516 -145.36331112 63.72317102 -145.8125 62.14453125 C-146.84575631 58.54574651 -147.96610553 55.08439626 -149.36328125 51.60546875 C-152.18667286 44.45947219 -154.15390252 39.28292466 -151 32 C-150.70738281 31.29617188 -150.41476562 30.59234375 -150.11328125 29.8671875 C-148.22350674 26.69767096 -145.38817989 26.1293933 -142 25 C-136.90590455 24.13291992 -133.93004015 25.78882248 -129.8203125 28.5859375 C-122.21396175 34.49473357 -119.4104299 44.16166541 -116.875 53.0625 C-116.62363281 53.92166016 -116.37226563 54.78082031 -116.11328125 55.66601562 C-115.62219849 57.34880969 -115.1359799 59.03303215 -114.6550293 60.71875 C-114.10568416 62.63193709 -113.53049358 64.53767715 -112.94921875 66.44140625 C-111.6767685 71.21178557 -110.79419563 76.01496241 -109.9375 80.875 C-109.76412109 81.79796875 -109.59074219 82.7209375 -109.41210938 83.671875 C-106.85889848 98.11072284 -106.83322989 112.76374053 -106.86962891 127.38354492 C-106.87498883 129.93218956 -106.86964245 132.4806575 -106.86328125 135.02929688 C-106.85412103 150.7237694 -107.21830443 166.12870364 -110.3125 181.5625 C-110.53542725 182.71580811 -110.75835449 183.86911621 -110.98803711 185.05737305 C-113.69847534 198.88825262 -116.91483576 212.50344472 -121 226 C-121.23332031 226.77214844 -121.46664063 227.54429687 -121.70703125 228.33984375 C-124.93288231 238.47014795 -129.0017692 248.44345844 -133.921875 257.86328125 C-135.15226901 260.21726726 -135.15226901 260.21726726 -136.4375 263.6875 C-138.92751158 268.96632455 -142.11115207 273.39806502 -147.5 275.9375 C-152.84276169 277.5594098 -156.1532113 277.71657932 -161.125 275.125 C-166.05246844 271.76150816 -167.55023079 267.62446271 -169 262 C-169.9808551 254.68069479 -170.12187421 247.27917745 -170.29077148 239.9050293 C-170.66263054 223.76850187 -172.01343567 207.84934159 -173.63574219 191.79736328 C-174.29534323 184.92106662 -174.79706155 178.0311935 -175.26538086 171.1394043 C-175.66345483 165.72531695 -176.39992381 160.54142065 -177.53833008 155.23339844 C-178.13248094 152.35910333 -178.47464254 149.47698466 -178.8125 146.5625 C-181.04943587 130.42837983 -186.07554887 114.71445866 -193 100 C-193.33 99.29875 -193.66 98.5975 -194 97.875 C-197.72276194 90.1968035 -202.71709503 83.6615578 -208 77 C-208.90878906 75.76636719 -208.90878906 75.76636719 -209.8359375 74.5078125 C-216.23852025 67.08821299 -227.22550928 59.7855009 -237.12158203 58.78564453 C-255.85176313 57.55334526 -270.71456164 62.07765877 -287 71 C-287 71.66 -287 72.32 -287 73 C-287.71671875 73.23976563 -288.4334375 73.47953125 -289.171875 73.7265625 C-301.13685515 79.11410881 -309.97971658 92.88563062 -316 104 C-316.7734375 104.99 -316.7734375 104.99 -317.5625 106 C-320.16489433 109.62072255 -321.56077849 113.89189868 -323.1953125 118.015625 C-323.62585938 119.08296875 -324.05640625 120.1503125 -324.5 121.25 C-324.9021875 122.26578125 -325.304375 123.2815625 -325.71875 124.328125 C-328.06309378 129.21693947 -331.04383683 130.68682461 -335.875 133 C-342.23731979 136.06156742 -347.05348941 138.93571535 -352 144 C-353.14019479 144.94434957 -354.28638716 145.88149006 -355.4375 146.8125 C-358.79373771 149.6264635 -361.24534232 152.77754718 -363.73828125 156.36328125 C-365 158 -365 158 -367 159 C-369.19596344 162.38942183 -371.08364513 165.94675868 -373 169.5 C-374.47069323 172.22691037 -375.95036617 174.9188035 -377.56640625 177.5625 C-396.11448483 209.09928756 -394.01673682 253.61792867 -385.1875 287.75 C-382.93511579 294.90619707 -379.56039186 301.42327616 -376 308 C-375.27876953 309.37285156 -375.27876953 309.37285156 -374.54296875 310.7734375 C-372.37906772 314.94800636 -372.37906772 314.94800636 -369.421875 318.55078125 C-368 320 -368 320 -367 323 C-365.38161281 324.71358643 -363.70328319 326.3707726 -362 328 C-361.2575 328.79083984 -361.2575 328.79083984 -360.5 329.59765625 C-355.53369422 334.83854144 -349.95867881 338.94747852 -344 343 C-342.99839844 343.68449219 -341.99679687 344.36898438 -340.96484375 345.07421875 C-332.68795247 350.45881345 -324.2806184 353.77642237 -315 357 C-313.68515625 357.53367187 -313.68515625 357.53367187 -312.34375 358.078125 C-296.10347748 364.46596553 -277.18476749 366.26963286 -259.91162109 367.73046875 C-256.75349146 368.02281951 -253.60732075 368.38285246 -250.45703125 368.75 C-234.72903706 370.51403549 -219.07700255 371.31042916 -203.2578125 371.58203125 C-202.18182926 371.6018745 -201.10584602 371.62171776 -199.99725723 371.64216232 C-165.16158463 372.26826829 -130.31583981 372.15050193 -95.47596478 372.12856978 C-88.7845899 372.12479367 -82.09322982 372.12616493 -75.40185547 372.13037109 C-23.64007709 372.19690878 -23.64007709 372.19690878 28.1171875 371.60546875 C29.56634237 371.58154997 29.56634237 371.58154997 31.0447731 371.55714798 C63.89096122 370.98749142 96.10902594 367.65964325 126.2265625 353.8125 C128.45272175 352.79258563 130.71680908 351.88381584 133 351 C133 350.34 133 349.68 133 349 C134.423125 348.5359375 134.423125 348.5359375 135.875 348.0625 C138.86080408 347.12605258 138.86080408 347.12605258 141 346 C141 345.34 141 344.68 141 344 C141.70382812 343.77570313 142.40765625 343.55140625 143.1328125 343.3203125 C146.61309742 341.71767449 149.12701049 339.48037401 151.875 336.875 C152.40311279 336.3807251 152.93122559 335.8864502 153.4753418 335.37719727 C180.68385749 309.62158375 191.16043846 274.08861135 192.35571289 237.41601562 C192.56134793 216.32150513 188.81142506 194.24127514 180 175 C179.69449219 174.32066406 179.38898437 173.64132812 179.07421875 172.94140625 C176.88590206 168.32162656 174.19640871 164.16701499 171.26953125 159.98046875 C170 158 170 158 169 155 C167.69205669 153.64175118 166.35099103 152.31543863 165 151 C163.88788943 149.73611256 162.78453337 148.46449615 161.6875 147.1875 C155.00427985 139.36695894 155.00427985 139.36695894 147 133 C146.34 133 145.68 133 145 133 C145 132.34 145 131.68 145 131 C144.32195313 130.64808594 143.64390625 130.29617188 142.9453125 129.93359375 C123.73303433 119.74203899 123.73303433 119.74203899 121.2890625 113.0546875 C121.06992187 112.33539063 120.85078125 111.61609375 120.625 110.875 C119.08111602 106.07960279 117.13534883 101.55831607 115 97 C114.566875 96.05125 114.13375 95.1025 113.6875 94.125 C106.68730986 81.16168492 97.66461134 69.1235653 86 60 C85.06800781 59.25556641 85.06800781 59.25556641 84.1171875 58.49609375 C82.11304101 56.94227167 80.07059482 55.46401912 78 54 C77.23558594 53.44441406 76.47117187 52.88882813 75.68359375 52.31640625 C63.44093442 43.92411 47.98347841 37.76132512 33 38 C33.57294194 43.19814594 36.10252591 47.30156503 38.5625 51.8125 C39.47265668 53.51102144 40.38148966 55.21025278 41.2890625 56.91015625 C41.74442383 57.76109863 42.19978516 58.61204102 42.66894531 59.48876953 C44.64469484 63.21631165 46.55140502 66.97645801 48.4375 70.75 C48.91328491 71.69516479 48.91328491 71.69516479 49.39868164 72.65942383 C51.42233275 76.71812842 53.24066173 80.82280019 55 85 C55.64209887 86.45998146 56.28740405 87.91856186 56.9375 89.375 C57.625 90.91666667 58.3125 92.45833333 59 94 C59.29092529 94.64316162 59.58185059 95.28632324 59.8815918 95.94897461 C62.38389403 101.51432421 64.69594981 107.13771723 66.9375 112.8125 C69.12099558 118.31204725 71.3156531 123.80173498 73.625 129.25 C75.79095804 134.40048885 77.75306319 139.61432928 79.69311523 144.8527832 C81.44929315 149.57973943 83.29287338 154.26448176 85.1875 158.9375 C87.03788922 163.51205703 88.77601275 168.09119563 90.27734375 172.79296875 C91.73231762 177.2365376 93.38451198 181.61276097 95 186 C95.33 186 95.66 186 96 186 C96.26446396 178.80070332 95.68486365 172.00958782 94.5703125 164.8984375 C93.81224856 159.71660316 93.28051639 154.51750691 92.78564453 149.30444336 C92.31037572 144.67083247 91.32763591 140.48142715 90 136 C89.69566245 134.02570771 89.42468362 132.04598061 89.1875 130.0625 C87.9840146 121.71574645 85.79503715 112.59007431 82 105 C81.06861765 94.66318277 81.06861765 94.66318277 83.75 89.875 C88.22666022 86.14444981 91.08726774 85.58507142 97 86 C100.28045854 86.88961588 101.65804628 87.51008553 103.625 90.328125 C106.76207998 96.99441995 109.46443754 103.69374817 111.82421875 110.67578125 C112.97339626 114.05629228 112.97339626 114.05629228 114.5234375 117.4609375 C128.78324221 151.63919959 126.71755418 198.83825653 122.3125 234.8125 C122.16425781 236.04307129 122.01601563 237.27364258 121.86328125 238.54150391 C120.27078987 249.81802244 117.97579205 261.49933017 110 270 C106.31133081 272.08078775 103.19766648 272.42833331 99 272 C94.75033779 270.3334658 92.47735445 268.78614548 90 265 C89.27030069 263.29647403 88.60647151 261.56368649 88 259.8125 C87.6596875 258.83796875 87.319375 257.8634375 86.96875 256.859375 C86.48921875 255.44398438 86.48921875 255.44398438 86 254 C85.61328125 252.86304688 85.61328125 252.86304688 85.21875 251.703125 C84.16060816 248.55170257 83.12734762 245.39256289 82.1015625 242.23046875 C80.3498226 236.88415856 78.48994669 231.61397805 76.4375 226.375 C74.6430418 221.77943633 73.1047922 217.19552736 71.7421875 212.45703125 C70.11933575 207.08453781 68.0667145 201.85230181 66.1015625 196.59765625 C63.4132007 189.32529292 60.97094668 181.97650528 58.54956055 174.61181641 C55.5193316 165.16685489 55.5193316 165.16685489 51.5 156.125 C49.78555465 152.55323885 48.77011862 148.99027281 47.74609375 145.171875 C47.11748517 142.82480785 47.11748517 142.82480785 45 141 C44.92483154 141.82854492 44.92483154 141.82854492 44.84814453 142.67382812 C43.17962615 160.94051006 43.17962615 160.94051006 42 169.9375 C41.32739322 175.09587658 40.78729791 180.2400536 40.35205078 185.42358398 C34.39782937 256.26601399 34.39782937 256.26601399 24.625 269.125 C21.66585358 271.23867601 19.59016698 272.35376994 16 273 C12.3125 272.1875 12.3125 272.1875 9 271 C8.01 270.67 7.02 270.34 6 270 C2.07911289 264.62278339 1.14879524 260.56929792 2 254 C2.6632947 250.82294511 3.42334237 247.68072269 4.20703125 244.53125 C5.29458908 239.68813533 5.89149151 234.82450054 6.47265625 229.8984375 C6.88473319 226.85212059 7.38652489 223.87983684 7.9609375 220.86328125 C9.13384336 214.54421707 9.86278544 208.1987837 10.5625 201.8125 C10.81349664 199.56897622 11.06479156 197.32548579 11.31640625 195.08203125 C11.42412354 194.10468018 11.53184082 193.1273291 11.64282227 192.12036133 C11.90076299 189.86695024 12.19319627 187.61739558 12.50708008 185.37109375 C13.18953825 179.9258048 13.3611195 174.46078579 13.5703125 168.98046875 C13.61615982 167.82063477 13.66200714 166.66080078 13.70924377 165.46582031 C13.85407442 161.70658248 13.99093932 157.94713674 14.125 154.1875 C14.17113434 152.90767242 14.21726868 151.62784485 14.26480103 150.30923462 C14.94452292 130.95300506 15.12859133 111.74539615 14.15576172 92.40234375 C14.01126031 89.24596178 13.93018311 86.09657761 13.87890625 82.9375 C13.59920282 69.51294116 10.42957406 58.90661863 4 47 C3.34 47 2.68 47 2 47 C1.9071875 46.1646875 1.9071875 46.1646875 1.8125 45.3125 C0.28221112 40.95706242 -3.50417356 38.40285898 -7 35.5625 C-9.23074738 33.65706994 -10.79291602 32.1216505 -12.5625 29.875 C-14.97347516 27.03128571 -16.7748512 25.76615292 -20 24 C-21.04800781 23.23042969 -22.09601563 22.46085937 -23.17578125 21.66796875 C-26.87964839 19.00267291 -30.72386087 16.88765537 -34.8125 14.875 C-35.51826172 14.52663086 -36.22402344 14.17826172 -36.95117188 13.81933594 C-42.20201196 11.28054754 -47.32588352 9.37478593 -53 8 C-54.17691406 7.67386719 -55.35382813 7.34773438 -56.56640625 7.01171875 C-66.32056601 4.3529275 -75.95105257 2.97712385 -86 2 C-86.87785156 1.88785156 -87.75570313 1.77570313 -88.66015625 1.66015625 C-123.47967493 -2.69974918 -163.91546375 4.70474668 -193 25 Z " fill="#5A3820" transform="translate(607,305)"/>
<path d="M0 0 C0.75990234 -0.01224609 1.51980469 -0.02449219 2.30273438 -0.03710938 C16.38526745 -0.0731876 26.91973784 6.3457917 37 15.6875 C42.33662111 21.14013461 46.13041356 27.69606736 50.0625 34.1875 C50.8052417 35.36602539 50.8052417 35.36602539 51.56298828 36.56835938 C66.05254125 61.87671565 67.12951011 98.88129711 59.95703125 126.6484375 C53.7673782 149.11485625 42.89631763 171.79445522 22.11328125 184.0625 C8.27414503 191.65425473 -6.46191343 192.81112467 -21.80078125 188.8984375 C-30.20415448 186.10243398 -37.56745322 181.32714084 -43.9375 175.1875 C-43.9375 174.5275 -43.9375 173.8675 -43.9375 173.1875 C-44.9275 172.8575 -45.9175 172.5275 -46.9375 172.1875 C-55.11950121 162.60189189 -60.31738883 151.79451613 -64.9375 140.1875 C-65.43830078 139.07375 -65.43830078 139.07375 -65.94921875 137.9375 C-76.01731469 109.92192869 -72.60577625 76.07120848 -60.9375 49.1875 C-60.42703125 47.97578125 -59.9165625 46.7640625 -59.390625 45.515625 C-55.65622067 36.96263443 -50.58325808 29.59545295 -44.9375 22.1875 C-44.23753906 21.25421875 -43.53757812 20.3209375 -42.81640625 19.359375 C-42.19636719 18.64265625 -41.57632812 17.9259375 -40.9375 17.1875 C-40.2775 17.1875 -39.6175 17.1875 -38.9375 17.1875 C-38.9375 16.5275 -38.9375 15.8675 -38.9375 15.1875 C-36.8203125 13.4609375 -36.8203125 13.4609375 -34.0625 11.5625 C-33.15757812 10.93085938 -32.25265625 10.29921875 -31.3203125 9.6484375 C-28.9375 8.1875 -28.9375 8.1875 -26.9375 8.1875 C-26.9375 7.5275 -26.9375 6.8675 -26.9375 6.1875 C-25.25567609 5.36331505 -23.56669626 4.55372649 -21.875 3.75 C-20.93527344 3.29753906 -19.99554688 2.84507812 -19.02734375 2.37890625 C-12.85730117 -0.00018729 -6.52409398 0.00550556 0 0 Z M-14.9375 34.1875 C-14.9375 34.8475 -14.9375 35.5075 -14.9375 36.1875 C-15.515 36.27 -16.0925 36.3525 -16.6875 36.4375 C-21.42855666 38.01785222 -23.57964367 42.03767286 -25.9375 46.1875 C-26.3190625 46.76371094 -26.700625 47.33992188 -27.09375 47.93359375 C-36.87529374 62.75501826 -39.64819028 79.75656186 -39.51391602 97.17822266 C-39.50000519 99.68656371 -39.53433929 102.19118675 -39.57226562 104.69921875 C-39.65020577 121.04220629 -35.76853848 137.90928948 -24.83984375 150.62890625 C-19.36596708 155.87108444 -13.07321733 159.95685401 -5.328125 160.3046875 C1.47859719 159.83027959 6.79381861 158.16656249 12 153.625 C14.27781408 151.46520623 14.27781408 151.46520623 14.0625 149.1875 C15.0525 148.8575 16.0425 148.5275 17.0625 148.1875 C26.92306222 135.09396656 32.39216517 117.51685648 33.0625 101.1875 C33.12566406 100.10339844 33.18882812 99.01929688 33.25390625 97.90234375 C33.92312508 76.68163051 29.85369989 54.84046829 15.6875 38.4375 C9.83295233 33.41931628 4.3750223 29.84882294 -3.40625 29.88671875 C-7.63923977 30.3897129 -11.20387397 32.21035525 -14.9375 34.1875 Z " fill="#593820" transform="translate(354.9375,390.8125)"/>
<path d="M0 0 C2.45931889 1.01245952 4.90452043 1.90091258 7.43359375 2.71875 C17.34528142 5.95159437 26.32665355 10.01415537 34.80859375 16.15625 C34.80859375 16.81625 34.80859375 17.47625 34.80859375 18.15625 C35.46859375 18.15625 36.12859375 18.15625 36.80859375 18.15625 C40.34049759 23.45410575 39.52793034 30.01879104 38.80859375 36.15625 C37.4726422 39.39525091 36.03550627 40.81117687 32.80859375 42.15625 C23.71461098 44.41771661 14.38427209 40.00435731 5.94873047 36.93457031 C2.95615462 35.84623677 -0.05186988 34.80700411 -3.06640625 33.78125 C-4.42378906 33.30558594 -4.42378906 33.30558594 -5.80859375 32.8203125 C-8.42133119 31.97727784 -8.42133119 31.97727784 -12.19140625 32.15625 C-12.52140625 57.23625 -12.85140625 82.31625 -13.19140625 108.15625 C-6.92140625 107.82625 -0.65140625 107.49625 5.80859375 107.15625 C23.21673734 106.57208411 23.21673734 106.57208411 28.80859375 111.15625 C31.22995601 114.78829338 31.13789014 116.70768835 31.18359375 121.03125 C31.21195313 122.24554688 31.2403125 123.45984375 31.26953125 124.7109375 C30.73283298 128.72252964 29.62792853 130.31595362 26.80859375 133.15625 C23.97163625 134.57472875 21.22331646 134.7183627 18.078125 135.12890625 C17.40947922 135.21627548 16.74083344 135.30364471 16.05192566 135.3936615 C14.63405557 135.57782499 13.21594068 135.760112 11.79760742 135.94067383 C9.64615026 136.21554872 7.49593981 136.49895799 5.34570312 136.78320312 C3.96491103 136.96145942 2.58405347 137.13920952 1.203125 137.31640625 C-0.04621826 137.47761963 -1.29556152 137.63883301 -2.58276367 137.80493164 C-6.10426745 138.14776663 -9.65325353 138.15625 -13.19140625 138.15625 C-13.19140625 160.59625 -13.19140625 183.03625 -13.19140625 206.15625 C-6.91118208 204.90020517 -0.67025175 203.62455981 5.55859375 202.15625 C6.27402344 201.99125 6.98945312 201.82625 7.7265625 201.65625 C10.91695764 200.90694619 13.98791463 200.09576647 17.09765625 199.046875 C21.30028187 197.66618531 25.12294063 197.4647 29.24609375 199.15625 C29.76171875 199.48625 30.27734375 199.81625 30.80859375 200.15625 C30.80859375 200.81625 30.80859375 201.47625 30.80859375 202.15625 C31.76765625 202.5275 31.76765625 202.5275 32.74609375 202.90625 C34.80859375 204.15625 34.80859375 204.15625 35.421875 205.9296875 C36.55234049 212.43842818 36.66898362 218.56534054 32.80859375 224.15625 C28.7783131 228.30506832 24.20617291 229.56974111 18.80859375 231.15625 C18.02226563 231.4140625 17.2359375 231.671875 16.42578125 231.9375 C11.08112043 233.65604046 5.82583135 234.71048027 0.28125 235.5546875 C-3.14606126 236.14839496 -6.5079618 236.88647031 -9.89501953 237.671875 C-32.47438511 242.90658613 -32.47438511 242.90658613 -40.19140625 238.15625 C-44.84475935 233.5028969 -45.3019425 229.69906047 -45.32514966 223.28449672 C-45.32291893 222.49979112 -45.32068821 221.71508551 -45.31838989 220.90660095 C-45.32072988 219.64751469 -45.32072988 219.64751469 -45.32311714 218.36299235 C-45.32711114 215.54528117 -45.32394347 212.72762371 -45.32080078 209.90991211 C-45.32215568 207.8909146 -45.32393612 205.87191733 -45.32611084 203.85292053 C-45.33067895 198.36031515 -45.328897 192.86772851 -45.32573175 187.37512279 C-45.32319976 181.6157684 -45.32554852 175.85641561 -45.32711792 170.09706116 C-45.32893935 160.40837314 -45.32653629 150.71969273 -45.32177734 141.03100586 C-45.31635779 129.86936259 -45.31808062 118.70773765 -45.32360375 107.54609483 C-45.32816323 97.94409655 -45.32877093 88.34210375 -45.32616508 78.74010473 C-45.32461487 73.01460411 -45.32437335 67.28911204 -45.32770157 61.56361198 C-45.33062075 56.16360699 -45.32853133 50.76362519 -45.32280731 45.36362267 C-45.32150019 43.39621774 -45.32183833 41.42881081 -45.32406998 39.46140671 C-45.33034632 33.35853387 -45.2937747 27.25830015 -45.19140625 21.15625 C-45.17827062 20.28469623 -45.16513499 19.41314246 -45.15160131 18.51517797 C-45.10205142 15.93203992 -45.02279428 13.35158022 -44.93331909 10.76954651 C-44.91972009 10.00335682 -44.90612108 9.23716713 -44.89210999 8.44775957 C-44.65396921 2.99202728 -43.24870143 -0.30758938 -40.19140625 -4.84375 C-29.26364601 -14.7736524 -11.1620827 -4.76094034 0 0 Z " fill="#593820" transform="translate(565.19140625,341.84375)"/>
<path d="M0 0 C25.19472663 1.03401781 48.54750235 17.0185658 65.5 34.453125 C74.97619866 45.131183 90.90234375 67.07962016 90.90234375 82.16015625 C91.57265625 82.39863281 92.24296875 82.63710938 92.93359375 82.8828125 C118.17654238 93.74392329 138.24897395 116.02359681 148.7890625 141.08984375 C163.19070683 180.80806284 164.13374551 227.12612106 146.15234375 266.03515625 C132.13371579 294.86623808 109.15659076 314.92785419 78.9855957 325.85302734 C54.29139716 334.17998207 28.28689446 336.01766922 2.43334961 337.22949219 C1.51099829 337.27297775 0.58864696 337.31646331 -0.3616544 337.36126661 C-22.04147616 338.35829739 -43.70514475 338.45603435 -65.40407062 338.42880726 C-70.89658438 338.42359658 -76.38909289 338.42847908 -81.88160706 338.43157959 C-91.09108712 338.43517716 -100.30053469 338.43053324 -109.51000977 338.42089844 C-120.02158702 338.41002548 -130.53308656 338.41354845 -141.04466194 338.42455125 C-150.21472488 338.43375035 -159.384765 338.43484893 -168.55483109 338.42967391 C-173.96812552 338.42662179 -179.38138399 338.4259502 -184.79467583 338.43274689 C-221.19298704 338.4722461 -257.88092541 338.18897804 -294.09765625 334.16015625 C-295.20463867 334.03946777 -296.31162109 333.9187793 -297.45214844 333.79443359 C-330.31110984 330.08310321 -363.18473766 322.9453533 -389.09765625 301.16015625 C-389.89816406 300.51691406 -390.69867188 299.87367188 -391.5234375 299.2109375 C-413.30935673 280.88094947 -423.26712229 251.72565768 -426.09765625 224.16015625 C-426.44183732 218.45612782 -426.43839975 212.74746248 -426.41015625 207.03515625 C-426.40833344 206.26802307 -426.40651062 205.50088989 -426.40463257 204.71051025 C-426.26243439 169.092413 -416.76348739 135.7886824 -391.09765625 110.16015625 C-384.88324104 104.04021695 -377.50787996 97.44685374 -369.17041016 94.47265625 C-364.36308001 92.62097752 -362.43002344 90.60682701 -360.19140625 85.94140625 C-359.30447144 83.85702624 -358.44075563 81.76264926 -357.59765625 79.66015625 C-356.6596527 77.47731346 -355.71439792 75.29757157 -354.76171875 73.12109375 C-354.30829102 72.08307617 -353.85486328 71.04505859 -353.38769531 69.97558594 C-349.03260131 60.47086527 -342.38703347 52.57163359 -335.09765625 45.16015625 C-334.33839844 44.38800781 -333.57914062 43.61585938 -332.796875 42.8203125 C-317.38966275 28.0687263 -296.67399474 20.52101109 -275.44921875 20.9140625 C-261.32615741 21.9510705 -249.56169818 30.07709995 -240.09765625 40.16015625 C-233.54126256 47.88590674 -228.81461418 56.23785332 -224.41015625 65.34765625 C-223.96341553 66.26909424 -223.5166748 67.19053223 -223.05639648 68.13989258 C-222.65364502 69.00638428 -222.25089355 69.87287598 -221.8359375 70.765625 C-221.47540283 71.54059326 -221.11486816 72.31556152 -220.7434082 73.11401367 C-220.09765625 75.16015625 -220.09765625 75.16015625 -221.09765625 78.16015625 C-223.80531443 73.5851476 -226.03088076 69.06874805 -228.09765625 64.16015625 C-232.24765591 55.23505239 -237.66282141 46.37215048 -244.8125 39.515625 C-246.09765625 38.16015625 -246.09765625 38.16015625 -246.09765625 36.16015625 C-246.67257812 35.88945312 -247.2475 35.61875 -247.83984375 35.33984375 C-250.12569861 34.14550436 -252.12330919 32.7802632 -254.22265625 31.28515625 C-267.06007433 22.85091056 -280.62332688 22.16063588 -295.54760742 25.24511719 C-302.83891047 26.99696448 -309.11663963 29.94313754 -315.5234375 33.76953125 C-318.09765625 35.16015625 -318.09765625 35.16015625 -321.09765625 35.16015625 C-321.09765625 35.82015625 -321.09765625 36.48015625 -321.09765625 37.16015625 C-322.72182352 38.40515212 -324.39954023 39.58058094 -326.09765625 40.72265625 C-336.84215953 48.37175205 -345.40096327 59.28161238 -351.09765625 71.16015625 C-351.50886719 71.959375 -351.92007813 72.75859375 -352.34375 73.58203125 C-354.91419914 78.6049417 -357.12686535 83.61146679 -359.0078125 88.93359375 C-361.46066355 93.94479482 -365.31108507 95.98021744 -370.22265625 98.28515625 C-374.49633361 100.24390329 -374.49633361 100.24390329 -378.09765625 103.16015625 C-379.08765625 103.16015625 -380.07765625 103.16015625 -381.09765625 103.16015625 C-381.34128906 103.75441406 -381.58492188 104.34867187 -381.8359375 104.9609375 C-383.32533157 107.55700208 -384.8392588 108.6426847 -387.28515625 110.34765625 C-391.60550539 113.55307658 -394.59557032 117.05909367 -397.6875 121.4375 C-398.15285156 122.00597656 -398.61820313 122.57445312 -399.09765625 123.16015625 C-399.75765625 123.16015625 -400.41765625 123.16015625 -401.09765625 123.16015625 C-401.20464844 123.7325 -401.31164062 124.30484375 -401.421875 124.89453125 C-402.19671966 127.49227636 -403.3425114 129.2035473 -404.91015625 131.41015625 C-425.73675009 161.87961215 -427.43520733 203.10728649 -421.2265625 238.3046875 C-418.91524486 250.59980322 -415.05476712 261.1562346 -409.09765625 272.16015625 C-408.37642578 273.53300781 -408.37642578 273.53300781 -407.640625 274.93359375 C-405.47201288 279.13305855 -405.47201288 279.13305855 -402.45703125 282.7109375 C-401.09765625 284.16015625 -401.09765625 284.16015625 -401.09765625 287.16015625 C-400.49953125 287.41667969 -399.90140625 287.67320312 -399.28515625 287.9375 C-396.88017302 289.28171384 -395.7767908 290.55814687 -394.09765625 292.72265625 C-382.46577029 306.40868378 -365.71622231 314.38777822 -349.09765625 320.16015625 C-347.7828125 320.69382812 -347.7828125 320.69382812 -346.44140625 321.23828125 C-330.20113373 327.62612178 -311.28242374 329.42978911 -294.00927734 330.890625 C-290.85114771 331.18297576 -287.704977 331.54300871 -284.5546875 331.91015625 C-268.82669331 333.67419174 -253.1746588 334.47058541 -237.35546875 334.7421875 C-236.27948551 334.76203075 -235.20350227 334.78187401 -234.09491348 334.80231857 C-199.25924088 335.42842454 -164.41349606 335.31065818 -129.57362103 335.28872603 C-122.88224615 335.28494992 -116.19088607 335.28632118 -109.49951172 335.29052734 C-57.73773334 335.35706503 -57.73773334 335.35706503 -5.98046875 334.765625 C-4.53131388 334.74170622 -4.53131388 334.74170622 -3.05288315 334.71730423 C29.82705631 334.14706232 62.00648594 330.81334444 92.12890625 316.90625 C94.34286175 315.97482819 96.52325067 315.467136 98.90234375 315.16015625 C98.90234375 314.50015625 98.90234375 313.84015625 98.90234375 313.16015625 C104.65234375 310.16015625 104.65234375 310.16015625 106.90234375 310.16015625 C106.90234375 309.50015625 106.90234375 308.84015625 106.90234375 308.16015625 C108.23926448 307.28060314 109.57931038 306.40562546 110.9296875 305.546875 C134.24978009 289.15354259 148.84608644 260.66510863 153.90234375 233.16015625 C158.96814799 201.57117187 158.46310151 168.7724232 144.90234375 139.16015625 C144.59683594 138.48082031 144.29132812 137.80148437 143.9765625 137.1015625 C141.77622633 132.45640837 139.06204718 128.31914744 136.07421875 124.140625 C134.90234375 122.16015625 134.90234375 122.16015625 134.90234375 119.16015625 C133.91234375 118.83015625 132.92234375 118.50015625 131.90234375 118.16015625 C130.61328125 116.62890625 130.61328125 116.62890625 129.27734375 114.66015625 C124.88514279 108.58537084 119.70616655 102.77121614 113.33984375 98.72265625 C112.53546875 98.20703125 111.73109375 97.69140625 110.90234375 97.16015625 C110.90234375 96.50015625 110.90234375 95.84015625 110.90234375 95.16015625 C110.33128906 95.05316406 109.76023437 94.94617188 109.171875 94.8359375 C106.5637115 94.05932427 104.81453954 92.90849965 102.58984375 91.34765625 C99.81459134 89.4305411 97.07444233 87.66714343 94.08984375 86.09765625 C88.36165962 82.61581884 86.57127243 78.72823309 84.68359375 72.5625 C83.4019659 68.62149436 81.65824555 64.90846907 79.90234375 61.16015625 C79.46921875 60.21140625 79.03609375 59.26265625 78.58984375 58.28515625 C71.78161713 45.67732918 63.22413951 34.06079406 51.90234375 25.16015625 C50.96841797 24.41378906 50.96841797 24.41378906 50.015625 23.65234375 C48.01254663 22.10026274 45.97138096 20.62307406 43.90234375 19.16015625 C43.13792969 18.60457031 42.37351562 18.04898437 41.5859375 17.4765625 C28.72860334 8.662909 14.18696813 4.34664884 -1.09765625 2.16015625 C4.20029057 13.50730216 9.59403545 24.76644403 15.58935547 35.76489258 C18.12196826 40.46197548 20.1323134 45.12325315 21.90234375 50.16015625 C21.24234375 50.49015625 20.58234375 50.82015625 19.90234375 51.16015625 C19.56090332 50.44174561 19.21946289 49.72333496 18.86767578 48.9831543 C17.25821341 45.60274413 15.64441203 42.22443284 14.02734375 38.84765625 C13.58932434 37.93268875 13.58932434 37.93268875 13.14245605 36.99923706 C8.91955469 28.19312296 4.55839738 19.47804267 -0.11279297 10.89916992 C-0.4945166 10.19252197 -0.87624023 9.48587402 -1.26953125 8.7578125 C-1.60049805 8.15461182 -1.93146484 7.55141113 -2.27246094 6.92993164 C-3.16608936 5.01338951 -3.73133925 3.24268499 -4.09765625 1.16015625 C-3.09765625 0.16015625 -3.09765625 0.16015625 0 0 Z " fill="#1F0801" transform="translate(641.09765625,340.83984375)"/>
<path d="M0 0 C0.33 0 0.66 0 1 0 C1.00054477 1.17559573 1.00108953 2.35119146 1.00165081 3.56241131 C1.01569227 31.46315012 1.05543208 59.3637605 1.12685562 87.26441325 C1.13562247 90.69784079 1.14417226 94.13126884 1.15258789 97.56469727 C1.15426695 98.2482365 1.15594602 98.93177573 1.15767596 99.63602827 C1.18435222 110.70658464 1.19344148 121.77708924 1.19604143 132.84767445 C1.19909993 144.20553173 1.22140717 155.56320961 1.26052457 166.92101079 C1.28188711 173.30124069 1.29443833 179.68121737 1.28615379 186.06148338 C1.27863447 192.06403535 1.29435075 198.06607334 1.32806015 204.06853104 C1.33631892 206.27400638 1.33601356 208.47953258 1.32659721 210.68500328 C1.31502647 213.6922799 1.33401608 216.69785769 1.36076355 219.70500183 C1.35009029 220.58146478 1.33941703 221.45792774 1.32842034 222.36095017 C1.4017176 226.76606447 1.5704892 228.4631565 4.41495228 232.01843739 C8.87661751 235.43851701 12.52281052 235.34141968 18 235 C21.49759575 234.48468742 24.92481918 233.7370053 28.37109375 232.953125 C29.81464989 232.63441437 29.81464989 232.63441437 31.28736877 232.30926514 C33.31118763 231.85991273 35.33396296 231.40583681 37.35571289 230.94726562 C40.42245224 230.25340461 43.49297915 229.57880324 46.56445312 228.90625 C48.54192363 228.46469088 50.51914601 228.0220188 52.49609375 227.578125 C53.40056747 227.38003235 54.3050412 227.1819397 55.23692322 226.97784424 C66.11064382 224.70182263 66.11064382 224.70182263 75.0625 218.75 C76.8447023 213.52220658 77.80675098 209.28865721 75.6875 204.125 C74.19456308 201.00375905 74.19456308 201.00375905 72 199 C63.54597674 197.93394507 55.71255537 199.72441408 47.625 202 C45.55647461 202.56903673 43.48619843 203.13175473 41.4140625 203.6875 C40.06755615 204.06455078 40.06755615 204.06455078 38.69384766 204.44921875 C35.63166177 205.07531005 33.11357125 205.36284978 30 205 C27.70367142 202.73655213 27.04429826 201.32951616 26.61231995 198.11621094 C26.60691696 197.00020508 26.60151398 195.88419922 26.59594727 194.734375 C26.58326309 193.46625977 26.57057892 192.19814453 26.55751038 190.89160156 C26.55956174 189.51106605 26.5625497 188.13053165 26.56640625 186.75 C26.56184393 185.3304011 26.55653821 183.91080442 26.55052185 182.49121094 C26.54159464 179.51878881 26.54400966 176.54663543 26.55395508 173.57421875 C26.56545189 169.76745246 26.54522181 165.96161281 26.51603794 162.15496826 C26.49768228 159.22438683 26.49796689 156.29402781 26.50367546 153.36340332 C26.50382872 151.95998839 26.49778068 150.55655843 26.48538399 149.15319824 C26.47048876 147.19072564 26.4837735 145.22810043 26.49829102 143.265625 C26.49845718 142.14961914 26.49862335 141.03361328 26.49879456 139.88378906 C27.11382834 136.34506512 28.20040666 135.17970295 31 133 C33.45092773 132.30224609 33.45092773 132.30224609 36.18359375 132.0234375 C37.69046753 131.85521484 37.69046753 131.85521484 39.2277832 131.68359375 C40.28698975 131.58175781 41.34619629 131.47992188 42.4375 131.375 C44.60687245 131.1337244 46.77614444 130.89154378 48.9453125 130.6484375 C49.98848633 130.53725586 51.03166016 130.42607422 52.10644531 130.31152344 C55.6846252 129.92629246 59.24749846 129.49311813 62.8125 129 C63.76769531 128.87625 64.72289062 128.7525 65.70703125 128.625 C68.34183074 127.90682637 69.35666771 127.15654963 71 125 C72.62560673 120.1231798 72.80931686 115.7727893 70.6875 111.125 C69.00259517 108.7802755 69.00259517 108.7802755 66 107 C63.27587195 106.86412635 60.65692016 106.83978245 57.9375 106.91015625 C56.32031545 106.93057368 54.70312783 106.95074857 53.0859375 106.97070312 C50.53795205 107.01425212 47.99017374 107.06270729 45.44238281 107.11645508 C42.98242882 107.1646755 40.52275414 107.19458301 38.0625 107.22265625 C37.29993896 107.24441422 36.53737793 107.26617218 35.75170898 107.28858948 C30.53263133 107.33764958 30.53263133 107.33764958 28.30039978 105.9225769 C26.30971912 102.97945379 26.61063758 100.45332023 26.59594727 96.92993164 C26.58908401 96.21415451 26.58222076 95.49837738 26.57514954 94.76091003 C26.55684176 92.39379055 26.56072458 90.02733137 26.56640625 87.66015625 C26.56184616 86.01492598 26.5565411 84.36969762 26.55052185 82.72447205 C26.54158283 79.27530177 26.54402255 75.82636293 26.55395508 72.37719727 C26.56544282 67.9572617 26.5452409 63.53812527 26.51603794 59.11829472 C26.49768984 55.72019883 26.49796563 52.3222949 26.50367546 48.92416191 C26.50382886 47.29467078 26.49776881 45.6651668 26.48538399 44.03572273 C26.47050215 41.75646004 26.48112855 39.47867926 26.49829102 37.19946289 C26.49845718 35.9027919 26.49862335 34.60612091 26.49879456 33.27015686 C27 30 27 30 28.84458923 27.55003357 C31 26 31 26 33.98828125 26 C39.5148426 27.1675211 44.85781459 29.16018102 50.1875 31 C52.3263963 31.73041713 54.46570287 32.45963426 56.60546875 33.1875 C57.54543701 33.51105469 58.48540527 33.83460938 59.45385742 34.16796875 C64.69508228 35.88070193 69.48067412 36.68102179 75 36 C77.64237846 34.77564845 77.64237846 34.77564845 79 32 C79.89639247 28.69422891 80.5086118 25.38799233 81 22 C81.33 22 81.66 22 82 22 C82.87410072 31.0971223 82.87410072 31.0971223 81.05078125 35.06640625 C78.92054154 37.59949932 76.9892641 38.74701359 73.78515625 39.56640625 C65.18881811 40.18894538 57.07820569 36.66707151 49.14013672 33.77832031 C46.14756087 32.68998677 43.13953637 31.65075411 40.125 30.625 C39.22007812 30.30789063 38.31515625 29.99078125 37.3828125 29.6640625 C34.77007506 28.82102784 34.77007506 28.82102784 31 29 C30.67 54.08 30.34 79.16 30 105 C36.27 104.67 42.54 104.34 49 104 C66.40814359 103.41583411 66.40814359 103.41583411 72 108 C74.42136226 111.63204338 74.32929639 113.55143835 74.375 117.875 C74.40335938 119.08929688 74.43171875 120.30359375 74.4609375 121.5546875 C73.92423923 125.56627964 72.81933478 127.15970362 70 130 C67.1630425 131.41847875 64.41472271 131.5621127 61.26953125 131.97265625 C60.60088547 132.06002548 59.93223969 132.14739471 59.24333191 132.2374115 C57.82546182 132.42157499 56.40734693 132.603862 54.98901367 132.78442383 C52.83755651 133.05929872 50.68734606 133.34270799 48.53710938 133.62695312 C47.15631728 133.80520942 45.77545972 133.98295952 44.39453125 134.16015625 C43.14518799 134.32136963 41.89584473 134.48258301 40.60864258 134.64868164 C37.0871388 134.99151663 33.53815272 135 30 135 C30 157.44 30 179.88 30 203 C36.28022417 201.74395517 42.5211545 200.46830981 48.75 199 C49.46542969 198.835 50.18085937 198.67 50.91796875 198.5 C54.10836389 197.75069619 57.17932088 196.93951647 60.2890625 195.890625 C64.49168812 194.50993531 68.31434688 194.30845 72.4375 196 C72.953125 196.33 73.46875 196.66 74 197 C74 197.66 74 198.32 74 199 C74.9590625 199.37125 74.9590625 199.37125 75.9375 199.75 C78 201 78 201 78.61328125 202.7734375 C79.74374674 209.28217818 79.86038987 215.40909054 76 221 C71.96971935 225.14881832 67.39757916 226.41349111 62 228 C61.21367188 228.2578125 60.42734375 228.515625 59.6171875 228.78125 C54.27252668 230.49979046 49.0172376 231.55423027 43.47265625 232.3984375 C40.04534499 232.99214496 36.68344445 233.73022031 33.29638672 234.515625 C10.71702114 239.75033613 10.71702114 239.75033613 3 235 C-1.65404189 230.34595811 -2.10973109 226.53895022 -2.1384055 220.12358463 C-2.1368569 219.3381969 -2.1353083 218.55280918 -2.13371277 217.74362183 C-2.1371111 216.48347722 -2.1371111 216.48347722 -2.14057809 215.19787514 C-2.14691677 212.37783384 -2.14608877 209.55784062 -2.14526367 206.73779297 C-2.14825551 204.71717263 -2.1516581 202.69655285 -2.15544128 200.67593384 C-2.16428953 195.17926659 -2.16661993 189.6826149 -2.16725707 184.18594122 C-2.16796787 180.74646817 -2.17010289 177.30699908 -2.17275429 173.86752701 C-2.18201506 161.85162353 -2.18608884 149.83573115 -2.18530273 137.81982422 C-2.18470386 126.6501945 -2.19521626 115.48061338 -2.2110464 104.31099594 C-2.22417265 94.70391708 -2.22948441 85.09685398 -2.22884732 75.48976624 C-2.22859354 69.76037079 -2.23137719 64.03101839 -2.24202538 58.30163193 C-2.25179048 52.89914953 -2.25172857 47.49675053 -2.24450874 42.09426498 C-2.24347281 40.12482581 -2.2457659 38.15538122 -2.2518692 36.18595123 C-2.28720831 23.97894382 -1.62405739 12.10254335 0 0 Z " fill="#1A0300" transform="translate(522,345)"/>
<path d="M0 0 C0.33 0 0.66 0 1 0 C0.93143799 0.95269775 0.86287598 1.90539551 0.79223633 2.88696289 C-2.35440382 48.46910267 0.22387614 95.23667963 31.25390625 131.64453125 C33.46242068 134.13705092 35.71982517 136.57312275 38 139 C38.7734375 139.88751953 38.7734375 139.88751953 39.5625 140.79296875 C75.69943129 180.41184394 143.06069989 184.83130707 192.64804077 187.12234497 C208.11537074 187.80992909 223.58265122 188.28263605 239.0625 188.5625 C240.20275635 188.58334656 241.3430127 188.60419312 242.51782227 188.62567139 C383.97126082 195.77702775 383.97126082 195.77702775 543 171 C543.70946777 170.72430176 544.41893555 170.44860352 545.14990234 170.16455078 C559.83309389 164.39947698 573.03320347 156.28497648 585 146 C585.70511719 145.41605469 586.41023437 144.83210937 587.13671875 144.23046875 C599.81921809 133.52885502 609.02835888 119.4123048 617 105 C618 108 618 108 616.8203125 110.62890625 C616.26085937 111.59699219 615.70140625 112.56507813 615.125 113.5625 C614.57070313 114.53316406 614.01640625 115.50382813 613.4453125 116.50390625 C612.96835937 117.32761719 612.49140625 118.15132812 612 119 C611.67 119.66 611.34 120.32 611 121 C610.34 121 609.68 121 609 121 C608.93554688 121.53496094 608.87109375 122.06992187 608.8046875 122.62109375 C607.65465121 126.02095831 605.44664064 128.39808269 603.125 131.0625 C602.38842163 131.91751099 602.38842163 131.91751099 601.63696289 132.78979492 C593.99099458 141.56199864 585.80099662 150.61838093 576 157 C575.01 157 574.02 157 573 157 C573 157.66 573 158.32 573 159 C570.54341098 160.39897563 568.08480544 161.79419907 565.625 163.1875 C564.60599609 163.76854492 564.60599609 163.76854492 563.56640625 164.36132812 C554.46370633 169.50818182 545.40641273 173.80401816 535.5 177.1875 C534.53191406 177.52974609 533.56382812 177.87199219 532.56640625 178.22460938 C527.1807444 180.08609652 521.89844764 181.54932463 516.29150391 182.5637207 C514.2953816 182.94376231 512.32629725 183.46071818 510.3671875 184 C503.7411727 185.67531831 496.90804324 186.28501267 490.125 187 C489.30818756 187.08682037 488.49137512 187.17364075 487.64981079 187.26309204 C460.16467327 190.08029516 432.42816747 190.1316965 404.82579041 190.70022583 C397.26720878 190.85900245 389.71724398 191.07164973 382.16369629 191.39979553 C361.51477655 192.29431719 340.85198316 192.24335927 320.1875 192.25 C318.61322613 192.25110464 318.61322613 192.25110464 317.00714874 192.2522316 C284.12744459 192.27093806 251.27870546 191.8164181 218.41498184 190.78239441 C215.40721569 190.68850563 212.39935339 190.59849282 209.39144897 190.50915527 C189.90793812 189.92150517 170.61002292 189.27670427 151.31365967 186.32957458 C148.165732 185.88116077 145.01045914 185.5638588 141.8454895 185.26264954 C126.58404984 183.80496146 111.62052127 180.58255144 97 176 C96.04609375 175.71640625 95.0921875 175.4328125 94.109375 175.140625 C87.81190637 173.17911838 81.78424231 170.70849182 75.75 168.0625 C75.00524414 167.73862305 74.26048828 167.41474609 73.49316406 167.08105469 C68.36972638 164.78701211 63.68546253 162.08430632 59 159 C58.00484375 158.36191406 57.0096875 157.72382812 55.984375 157.06640625 C45.38003851 149.72387483 34.83302406 141.33733224 27 131 C27 130.34 27 129.68 27 129 C26.34 129 25.68 129 25 129 C23.95650161 127.36021682 22.96817992 125.68535024 22 124 C21.22398437 122.94554687 20.44796875 121.89109375 19.6484375 120.8046875 C16.99160938 117.11204007 14.92486033 113.27147603 12.9375 109.1875 C12.41881348 108.13212036 12.41881348 108.13212036 11.88964844 107.05541992 C9.32994507 101.79400888 6.94697617 96.52233242 5 91 C4.51273438 89.6696875 4.51273438 89.6696875 4.015625 88.3125 C2.86310574 84.90813542 1.88995802 81.4800717 1 78 C0.7205957 76.92661377 0.7205957 76.92661377 0.43554688 75.83154297 C-2.99412419 61.92974917 -3.37690018 48.11304408 -3.375 33.875 C-3.37681274 32.98945435 -3.37862549 32.10390869 -3.38049316 31.19152832 C-3.37405185 3.37405185 -3.37405185 3.37405185 0 0 Z " fill="#1B0500" transform="translate(191,515)"/>
<path d="M0 0 C1.83653986 1.66313266 3.66982363 3.32986726 5.5 5 C9.11196844 8.07168497 9.11196844 8.07168497 13.5390625 9.34765625 C16.16373047 9.08961759 16.16373047 9.08961759 18.88671875 8.5546875 C44.64861406 3.96473877 73.05160256 14.44072243 94 29 C95.48113281 30.02480469 95.48113281 30.02480469 96.9921875 31.0703125 C97.94351562 31.74835938 98.89484375 32.42640625 99.875 33.125 C100.84179688 33.80820312 101.80859375 34.49140625 102.8046875 35.1953125 C103.52914062 35.79085937 104.25359375 36.38640625 105 37 C105 37.66 105 38.32 105 39 C105.556875 39.04125 106.11375 39.0825 106.6875 39.125 C109.57322369 40.21689545 110.84531254 41.98600507 112.703125 44.3828125 C114.1445558 46.2470523 114.1445558 46.2470523 116.6875 48.625 C118.77577531 50.76971518 119.69443132 52.38886264 121 55 C121.99 55.33 122.98 55.66 124 56 C125.60546875 57.99609375 125.60546875 57.99609375 127.1875 60.4375 C127.71730469 61.24058594 128.24710938 62.04367187 128.79296875 62.87109375 C130 65 130 65 130 67 C130.66 67 131.32 67 132 67 C133.45951119 69.58267413 134.91764881 72.16610741 136.375 74.75 C136.7875 75.47960937 137.2 76.20921875 137.625 76.9609375 C138.02460937 77.66992188 138.42421875 78.37890625 138.8359375 79.109375 C139.20251465 79.75874023 139.5690918 80.40810547 139.94677734 81.07714844 C142.09983208 85.00794563 143.25427591 87.42303369 143 92 C139.94502762 88.30897659 137.96965515 84.18195424 135.8125 79.9375 C132.10110056 72.79774831 128.02470491 66.3074031 123 60 C121.88431641 58.58074219 121.88431641 58.58074219 120.74609375 57.1328125 C100.83587119 32.27030108 71.90003376 15.51758286 40.18457031 11.234375 C32.17692374 10.37526227 24.20838257 10.54810884 16.3125 12.125 C11.97852812 12.59791472 9.73976821 11.51134077 6.27270508 8.89916992 C4.03414503 7.08317996 1.84109129 5.21666475 -0.3515625 3.34570312 C-35.48285966 -25.33375629 -89.00564294 -28.22113694 -132.01757812 -24.05664062 C-164.47872279 -20.37498374 -193.90659003 -9.01732307 -219 12 C-220.06541016 12.87978516 -220.06541016 12.87978516 -221.15234375 13.77734375 C-225.30890364 17.29566028 -228.94952876 21.03744509 -232.45703125 25.203125 C-233.22080078 26.09257812 -233.22080078 26.09257812 -234 27 C-234.43078857 27.5161084 -234.86157715 28.0322168 -235.30541992 28.56396484 C-237.46607917 30.39496869 -238.85315863 30.50853116 -241.65625 30.7734375 C-242.58719482 30.87317871 -243.51813965 30.97291992 -244.47729492 31.07568359 C-245.4747876 31.17445801 -246.47228027 31.27323242 -247.5 31.375 C-279.65495336 35.07480077 -308.93582431 48.0488794 -329.46289062 73.83789062 C-335.359153 81.75862077 -339.95943564 90.35658987 -344.2109375 99.24609375 C-344.50572998 99.85670654 -344.80052246 100.46731934 -345.10424805 101.09643555 C-345.72945319 102.42506039 -346.32792336 103.76645124 -346.90551758 105.11645508 C-349.10370762 110.01732852 -351.05139159 112.23355279 -355.9375 114.8125 C-385.57715816 131.5944265 -401.7090721 162.34506864 -411 194 C-411.33 194 -411.66 194 -412 194 C-411.12842398 174.30238198 -400.05707842 156.24980597 -388.4375 140.875 C-387.67308594 139.86179687 -386.90867187 138.84859375 -386.12109375 137.8046875 C-385.42113281 136.87914062 -384.72117187 135.95359375 -384 135 C-383.45472656 134.21882812 -382.90945313 133.43765625 -382.34765625 132.6328125 C-381.90292969 132.09398437 -381.45820313 131.55515625 -381 131 C-380.34 131 -379.68 131 -379 131 C-378.34 129.68 -377.68 128.36 -377 127 C-376.34 127 -375.68 127 -375 127 C-374.76152344 126.41992188 -374.52304687 125.83984375 -374.27734375 125.2421875 C-370.71915078 118.99630748 -363.38963681 115.0776605 -357.125 112 C-351.79691966 109.23089909 -349.9173725 106.57879569 -348 101 C-347.484375 99.80375 -346.96875 98.6075 -346.4375 97.375 C-345.963125 96.26125 -345.48875 95.1475 -345 94 C-342.91720021 89.6713987 -340.61690174 85.543805 -338.125 81.4375 C-337.46757812 80.34308594 -336.81015625 79.24867188 -336.1328125 78.12109375 C-334.0039301 75.00575118 -331.72371689 72.59794015 -329 70 C-327.86107697 68.72059307 -326.73482861 67.42972535 -325.625 66.125 C-320.89672047 60.67719967 -315.95163105 55.13307712 -310 51 C-309.01 51 -308.02 51 -307 51 C-306.505 49.515 -306.505 49.515 -306 48 C-302.52559912 45.67286846 -298.71994848 43.90387425 -295 42 C-294.07574219 41.48953125 -293.15148437 40.9790625 -292.19921875 40.453125 C-277.98727186 32.82624341 -263.4337034 30.28847625 -247.53320312 28.60693359 C-240.83596703 27.91172183 -240.83596703 27.91172183 -235.05859375 24.76953125 C-234.37925781 23.85558594 -233.69992187 22.94164062 -233 22 C-232.00041568 20.94803572 -230.98503302 19.91093065 -229.95703125 18.88671875 C-229.18262695 18.0987793 -229.18262695 18.0987793 -228.39257812 17.29492188 C-227.61043945 16.49924805 -227.61043945 16.49924805 -226.8125 15.6875 C-226.01295898 14.86282227 -226.01295898 14.86282227 -225.19726562 14.02148438 C-223.83575044 12.64284322 -222.42159498 11.31660273 -221 10 C-220.34 10 -219.68 10 -219 10 C-218.67 9.01 -218.34 8.02 -218 7 C-216.06912063 5.47655389 -214.16926997 4.10358346 -212.125 2.75 C-211.53928223 2.35522461 -210.95356445 1.96044922 -210.35009766 1.55371094 C-208.57218107 0.36073035 -206.78641478 -0.81979813 -205 -2 C-204.03578125 -2.6496875 -203.0715625 -3.299375 -202.078125 -3.96875 C-195.95990674 -8.00040828 -189.7785109 -11.22776285 -183 -14 C-181.82953125 -14.48339844 -180.6590625 -14.96679688 -179.453125 -15.46484375 C-125.28533451 -37.17079487 -48.27991865 -35.23921225 0 0 Z " fill="#1E0901" transform="translate(607,305)"/>
<path d="M0 0 C0.75990234 -0.01224609 1.51980469 -0.02449219 2.30273438 -0.03710938 C16.38526745 -0.0731876 26.91973784 6.3457917 37 15.6875 C42.33662111 21.14013461 46.13041356 27.69606736 50.0625 34.1875 C50.8052417 35.36602539 50.8052417 35.36602539 51.56298828 36.56835938 C66.05254125 61.87671565 67.12951011 98.88129711 59.95703125 126.6484375 C53.7673782 149.11485625 42.89631763 171.79445522 22.11328125 184.0625 C8.27414503 191.65425473 -6.46191343 192.81112467 -21.80078125 188.8984375 C-30.20415448 186.10243398 -37.56745322 181.32714084 -43.9375 175.1875 C-43.9375 174.5275 -43.9375 173.8675 -43.9375 173.1875 C-44.9275 172.8575 -45.9175 172.5275 -46.9375 172.1875 C-55.11950121 162.60189189 -60.31738883 151.79451613 -64.9375 140.1875 C-65.43830078 139.07375 -65.43830078 139.07375 -65.94921875 137.9375 C-72.71638434 119.10712619 -74.31075777 94.26933725 -67.9375 75.1875 C-67.6075 75.1875 -67.2775 75.1875 -66.9375 75.1875 C-67.0096875 76.13367188 -67.081875 77.07984375 -67.15625 78.0546875 C-69.45617212 109.87435467 -67.70216677 143.33494304 -46.0859375 168.84375 C-38.59590731 177.01469203 -31.34110108 182.21203067 -20.9375 186.1875 C-20.25171875 186.45433594 -19.5659375 186.72117187 -18.859375 186.99609375 C-6.44352817 190.9097846 8.14375139 188.33162431 19.5625 182.6875 C38.82273341 171.44308628 50.2350215 151.19662226 56.03125 130.1875 C56.37787701 128.85491171 56.72171178 127.52159341 57.0625 126.1875 C57.3821875 124.99125 57.701875 123.795 58.03125 122.5625 C64.88348822 91.60053473 60.62564761 56.80665355 44.33203125 29.515625 C35.86892062 16.61155083 23.71340467 5.85650894 8.33984375 2.5078125 C-6.9522932 0.3569459 -20.9139574 4.85033398 -33.26953125 13.89453125 C-51.1991676 28.80972786 -61.00385052 51.9259109 -65.9375 74.1875 C-66.2675 74.1875 -66.5975 74.1875 -66.9375 74.1875 C-67.92199735 64.99885807 -64.41551156 57.50167445 -60.9375 49.1875 C-60.67622314 48.56037109 -60.41494629 47.93324219 -60.14575195 47.28710938 C-56.24399877 38.04253738 -51.01073855 30.15636171 -44.9375 22.1875 C-44.23753906 21.25421875 -43.53757812 20.3209375 -42.81640625 19.359375 C-42.19636719 18.64265625 -41.57632812 17.9259375 -40.9375 17.1875 C-40.2775 17.1875 -39.6175 17.1875 -38.9375 17.1875 C-38.9375 16.5275 -38.9375 15.8675 -38.9375 15.1875 C-36.8203125 13.4609375 -36.8203125 13.4609375 -34.0625 11.5625 C-33.15757812 10.93085938 -32.25265625 10.29921875 -31.3203125 9.6484375 C-28.9375 8.1875 -28.9375 8.1875 -26.9375 8.1875 C-26.9375 7.5275 -26.9375 6.8675 -26.9375 6.1875 C-25.25567609 5.36331505 -23.56669626 4.55372649 -21.875 3.75 C-20.93527344 3.29753906 -19.99554688 2.84507812 -19.02734375 2.37890625 C-12.85730117 -0.00018729 -6.52409398 0.00550556 0 0 Z " fill="#200901" transform="translate(354.9375,390.8125)"/>
<path d="M0 0 C3.81529478 2.54352985 4.07340579 4.38485528 5.5 8.6875 C6.73308434 12.36699207 7.9758109 15.94485132 9.53515625 19.5 C23.81695207 53.62397082 21.71156394 100.8871763 17.3125 136.8125 C17.09013672 138.65835693 17.09013672 138.65835693 16.86328125 140.54150391 C15.33060896 151.39444022 13.07363785 165.80865936 4 173 C0.32157478 175.1150945 -2.79358663 175.42922585 -7 175 C-11.69974986 173.21409505 -14.33724673 171.26040523 -17 167 C-18.51184594 163.38996482 -19.77199039 159.71485752 -21 156 C-21.25652344 155.24332031 -21.51304687 154.48664063 -21.77734375 153.70703125 C-22.83944545 150.55517269 -23.8721368 147.39415221 -24.8984375 144.23046875 C-26.6501774 138.88415856 -28.51005331 133.61397805 -30.5625 128.375 C-32.3569582 123.77943633 -33.8952078 119.19552736 -35.2578125 114.45703125 C-36.88066425 109.08453781 -38.9332855 103.85230181 -40.8984375 98.59765625 C-43.5867993 91.32529292 -46.02905332 83.97650528 -48.45043945 76.61181641 C-51.52338694 67.01707285 -51.52338694 67.01707285 -55.6875 57.875 C-57.14823998 54.67528386 -57.24831221 52.47637091 -57 49 C-54.73156746 51.79374061 -53.34659025 54.30289752 -52.16918945 57.69702148 C-51.84008575 58.63421524 -51.51098206 59.571409 -51.17190552 60.53700256 C-50.64788651 62.0636277 -50.64788651 62.0636277 -50.11328125 63.62109375 C-49.55179886 65.22850685 -49.55179886 65.22850685 -48.97897339 66.86839294 C-47.75048429 70.38925854 -46.53165725 73.9133935 -45.3125 77.4375 C-44.46284051 79.8761084 -43.61232781 82.31441969 -42.76098633 84.75244141 C-41.45710643 88.48669221 -40.15371943 92.22110623 -38.85289001 95.9564209 C-35.00872388 106.99427962 -31.1177985 118.01510957 -27.20028687 129.02713013 C-26.21626506 131.7941151 -25.23458974 134.56192386 -24.25317383 137.32983398 C-22.79010594 141.45302967 -21.31044524 145.5700226 -19.82562256 149.6854248 C-18.9982752 152.00483535 -18.19612789 154.33187793 -17.39697266 156.66113281 C-16.88620512 158.1101893 -16.37499774 159.55909085 -15.86328125 161.0078125 C-15.64657272 161.66030975 -15.4298642 162.31280701 -15.20658875 162.9850769 C-13.65928572 167.2894154 -11.87770239 169.57638984 -8 172 C-4.02149356 172.64169459 -1.68318835 172.8109288 1.9296875 171.0703125 C10.53297861 164.83015714 11.72817718 152.33302087 13.33984375 142.53125 C20.13402332 97.59274643 18.16797716 47.87654707 0.91796875 5.57421875 C0 3 0 3 0 0 Z " fill="#230A02" transform="translate(713,403)"/>
<path d="M0 0 C1.21694046 -0.00564972 1.21694046 -0.00564972 2.45846558 -0.01141357 C16.66349018 -0.04481055 30.33682001 1.19437506 44.1875 4.5625 C45.07767822 4.77865967 45.96785645 4.99481934 46.88500977 5.2175293 C62.50317603 9.1603748 77.44113041 15.68670263 89.6875 26.3125 C88.6975 26.6425 87.7075 26.9725 86.6875 27.3125 C84.98620665 26.0236414 83.33003305 24.67545295 81.6875 23.3125 C72.21499697 17.14357454 62.63803431 12.17304774 51.6875 9.3125 C50.50285156 8.9825 49.31820312 8.6525 48.09765625 8.3125 C38.34961419 5.66702085 28.7275971 4.28876328 18.6875 3.3125 C17.80964844 3.20035156 16.93179688 3.08820313 16.02734375 2.97265625 C-18.82604596 -1.39149032 -59.18652098 6.0421185 -88.3125 26.3125 C-89.12074219 26.83972656 -89.92898438 27.36695313 -90.76171875 27.91015625 C-91.50035156 28.39355469 -92.23898437 28.87695312 -93 29.375 C-94.11955078 30.10396484 -94.11955078 30.10396484 -95.26171875 30.84765625 C-97.33818356 32.24001564 -97.33818356 32.24001564 -98.95703125 33.99609375 C-100.3125 35.3125 -100.3125 35.3125 -102.3125 35.3125 C-100.51944093 37.29430213 -98.9623386 38.51608221 -96.625 39.875 C-95.861875 40.349375 -95.09875 40.82375 -94.3125 41.3125 C-94.3125 41.9725 -94.3125 42.6325 -94.3125 43.3125 C-93.735 43.56 -93.1575 43.8075 -92.5625 44.0625 C-89.98310021 45.49549988 -88.25128408 47.09674676 -86.3125 49.3125 C-86.3125 49.9725 -86.3125 50.6325 -86.3125 51.3125 C-84.9925 51.9725 -83.6725 52.6325 -82.3125 53.3125 C-82.3125 53.9725 -82.3125 54.6325 -82.3125 55.3125 C-81.6525 55.3125 -80.9925 55.3125 -80.3125 55.3125 C-78.5859375 57.4296875 -78.5859375 57.4296875 -76.6875 60.1875 C-76.05585938 61.09242188 -75.42421875 61.99734375 -74.7734375 62.9296875 C-73.3125 65.3125 -73.3125 65.3125 -73.3125 67.3125 C-72.6525 67.3125 -71.9925 67.3125 -71.3125 67.3125 C-69.89464979 69.97854314 -68.47819508 72.64531272 -67.0625 75.3125 C-66.66675781 76.05628906 -66.27101563 76.80007813 -65.86328125 77.56640625 C-65.06206091 79.07690362 -64.26459378 80.58939721 -63.47070312 82.10375977 C-62.74310165 83.49132523 -62.00844711 84.87523849 -61.26367188 86.25366211 C-58.29013623 91.91050818 -56.28953218 97.8086808 -54.3125 103.875 C-53.78813354 105.47444458 -53.78813354 105.47444458 -53.25317383 107.10620117 C-49.57206681 118.44332354 -46.45494899 129.66421374 -44.5 141.4375 C-44.36360107 142.24421143 -44.22720215 143.05092285 -44.08666992 143.88208008 C-43.45863888 147.96062301 -43.12026647 151.27350479 -44.3125 155.3125 C-44.6425 155.3125 -44.9725 155.3125 -45.3125 155.3125 C-45.44712646 154.44806274 -45.44712646 154.44806274 -45.58447266 153.56616211 C-51.65146952 115.24888366 -62.15872299 79.08960064 -89.3125 50.3125 C-89.9209375 49.65121094 -90.529375 48.98992187 -91.15625 48.30859375 C-95.11108708 44.14702655 -99.31598618 41.12871688 -104.3125 38.3125 C-104.04311204 35.13809048 -103.23381615 34.23871036 -100.86328125 32.015625 C-99.79428182 31.18433085 -98.71400111 30.36741386 -97.625 29.5625 C-97.04339111 29.12639404 -96.46178223 28.69028809 -95.86254883 28.2409668 C-78.87414193 15.76976114 -59.70239607 8.19127687 -39.3125 3.3125 C-38.56178223 3.13170898 -37.81106445 2.95091797 -37.03759766 2.76464844 C-24.82836518 0.0063983 -12.45258171 0.03206378 0 0 Z " fill="#1E0701" transform="translate(502.3125,304.6875)"/>
<path d="M0 0 C3 2 3 2 3.6875 5.125 C3.8421875 6.548125 3.8421875 6.548125 4 8 C3.34 8 2.68 8 2 8 C1.505 6.515 1.505 6.515 1 5 C-0.44401235 17.69430796 -1.85994986 30.38846275 -3.08056641 43.10644531 C-10.7863438 123.11581658 -10.7863438 123.11581658 -21 133 C-24.59888085 135.3992539 -26.68673106 135.78787202 -31 136 C-35.38417827 135.09208249 -38.29856761 133.71941784 -41.4375 130.5 C-44.87379775 125.0019236 -44.6563026 119.22184913 -43.3984375 113.046875 C-42.86852872 110.87371373 -42.33309409 108.70189457 -41.79296875 106.53125 C-40.67899666 101.57050728 -40.08615859 96.5814689 -39.46484375 91.5390625 C-39.07537157 88.57383734 -38.58523776 85.68072551 -38 82.75 C-36.43425867 74.58577737 -35.80523573 66.26651576 -35 58 C-34.34 58 -33.68 58 -33 58 C-32.83693962 64.6978222 -33.421933 70.94214778 -34.49609375 77.546875 C-34.64909439 78.52110413 -34.80209503 79.49533325 -34.95973206 80.49908447 C-35.44588541 83.5837823 -35.94165712 86.66684657 -36.4375 89.75 C-36.76688507 91.83453927 -37.09566674 93.91917399 -37.42382812 96.00390625 C-39.78324385 110.9235317 -39.78324385 110.9235317 -40.58618164 114.91113281 C-41.73160035 120.69296321 -41.25987331 125.05398533 -38 130 C-35.28916453 132.1979747 -33.51042828 132.92397877 -30.0625 133.4375 C-25.96464439 132.85209206 -24.10129918 131.76420144 -21 129 C-17.22144306 122.60757479 -15.82425051 115.60323135 -14.5625 108.375 C-14.25119141 106.63005249 -14.25119141 106.63005249 -13.93359375 104.84985352 C-10.25829161 83.53835942 -7.75855224 62.03942927 -5.64453125 40.5234375 C-5.53249359 39.38405228 -5.42045593 38.24466705 -5.30502319 37.070755 C-4.75406164 31.43191176 -4.21718854 25.79211572 -3.69921875 20.15014648 C-3.50391659 18.08577376 -3.30860458 16.02140197 -3.11328125 13.95703125 C-3.03012161 13.00778778 -2.94696198 12.05854431 -2.86128235 11.08053589 C-2.77726669 10.20422516 -2.69325104 9.32791443 -2.60668945 8.42504883 C-2.50273613 7.28245354 -2.50273613 7.28245354 -2.39668274 6.11677551 C-1.96209355 3.79772386 -1.14549151 2.05198696 0 0 Z " fill="#200802" transform="translate(652,443)"/>
<path d="M0 0 C10.95679648 7.90696653 18.05731687 20.59585258 20.52734375 33.82421875 C20.76240933 35.87540744 20.89515508 37.93804985 21 40 C20.34 40 19.68 40 19 40 C18.82984375 39.24976563 18.6596875 38.49953125 18.484375 37.7265625 C15.05404513 23.23889275 9.96834434 9.41173851 -3.25 1.1875 C-8.85014838 -1.75165072 -13.50512275 -1.93622283 -19.56640625 -0.3125 C-21.74192663 0.39565061 -23.87412519 1.15568093 -26 2 C-26 2.66 -26 3.32 -26 4 C-26.928125 4.12375 -26.928125 4.12375 -27.875 4.25 C-30.18437567 4.81258459 -30.18437567 4.81258459 -31.25 7.0625 C-31.4975 7.701875 -31.745 8.34125 -32 9 C-32.66 9 -33.32 9 -34 9 C-34.10699219 9.57492187 -34.21398437 10.14984375 -34.32421875 10.7421875 C-35.09587325 13.3203164 -36.2304018 14.95412095 -37.8125 17.125 C-48.97671884 33.56491175 -49.57316409 52.35100317 -49.25 71.5 C-49.22988351 73.59503481 -49.21164194 75.6900885 -49.1953125 77.78515625 C-49.15177304 82.85724733 -49.08303614 87.92840811 -49 93 C-56.94655991 81.08016013 -53.45072766 58.25364785 -51 45 C-47.67800219 28.40749517 -40.45998925 10.16760776 -26.02734375 0.22265625 C-17.55311541 -4.88800554 -8.58926045 -5.6016916 0 0 Z " fill="#220A02" transform="translate(366,423)"/>
<path d="M0 0 C2 1 2 1 2.9296875 3.1328125 C5.23347708 10.42497292 6.83550178 17.7284956 8.1875 25.25 C8.43765869 26.60375732 8.43765869 26.60375732 8.69287109 27.98486328 C11.14184448 42.31878253 11.16647525 56.88217079 11.13037109 71.38354492 C11.12501117 73.93218956 11.13035755 76.4806575 11.13671875 79.02929688 C11.14587881 94.72349326 10.78255311 110.12907518 7.6875 125.5625 C7.46457275 126.71290771 7.24164551 127.86331543 7.01196289 129.04858398 C6.35982175 132.36982404 5.68650232 135.68570783 5 139 C4.81501953 139.89332031 4.63003906 140.78664063 4.43945312 141.70703125 C2.66637955 150.09734922 0.61351767 158.17711866 -3 166 C-4.13296364 162.60110908 -3.84331272 161.60349226 -2.92578125 158.23046875 C-2.54534668 156.78994141 -2.54534668 156.78994141 -2.15722656 155.3203125 C-1.8784668 154.28648437 -1.59970703 153.25265625 -1.3125 152.1875 C3.06364715 135.33348844 6.22069634 118.32479878 8 101 C8.11214844 99.96230469 8.22429687 98.92460937 8.33984375 97.85546875 C11.04534857 67.79842205 8.28952208 37.59071102 1.50292969 8.26171875 C0.8939724 5.52318462 0.41610792 2.77405283 0 0 Z " fill="#1D0601" transform="translate(490,361)"/>
<path d="M0 0 C3 2 3 2 4 5 C5.91415871 6.37278384 5.91415871 6.37278384 8.3125 7.625 C12.61742355 10.10453629 16.64371032 12.7900883 20.625 15.75 C21.64851562 16.50796875 22.67203125 17.2659375 23.7265625 18.046875 C24.47679687 18.69140625 25.22703125 19.3359375 26 20 C26 20.66 26 21.32 26 22 C26.556875 22.04125 27.11375 22.0825 27.6875 22.125 C30.57322369 23.21689545 31.84531254 24.98600507 33.703125 27.3828125 C35.1445558 29.2470523 35.1445558 29.2470523 37.6875 31.625 C39.7395395 33.73250003 40.90351048 35.30861664 42 38 C42.66 38 43.32 38 44 38 C45.32247289 39.76031864 46.55764141 41.58657125 47.75 43.4375 C50.0993729 47.07446919 52.47778733 50.66748891 55 54.1875 C66.3730581 71.24708715 75.40916474 94.33225051 74 115 C73.67 115 73.34 115 73 115 C72.79246094 113.79988281 72.58492187 112.59976563 72.37109375 111.36328125 C66.00218997 76.24169775 49.92848696 39.7061711 19.80908203 18.45410156 C15.19852634 15.31408134 10.53066089 12.26839718 5.81835938 9.28344727 C2.86445236 7.19849974 1.22333518 5.87303754 0.3125 2.3125 C0.209375 1.549375 0.10625 0.78625 0 0 Z " fill="#200B02" transform="translate(750,398)"/>
<path d="M0 0 C0.33 0 0.66 0 1 0 C0.93143799 0.95269775 0.86287598 1.90539551 0.79223633 2.88696289 C-1.8679332 41.42210311 -2.84592086 88.38408116 22.82421875 120.265625 C23.40623047 121.12414062 23.40623047 121.12414062 24 122 C23.67 122.99 23.34 123.98 23 125 C14.82719454 115.19263345 9.22971901 102.99702118 5 91 C4.51273438 89.6696875 4.51273438 89.6696875 4.015625 88.3125 C2.86310574 84.90813542 1.88995802 81.4800717 1 78 C0.7205957 76.92661377 0.7205957 76.92661377 0.43554688 75.83154297 C-2.99412419 61.92974917 -3.37690018 48.11304408 -3.375 33.875 C-3.37681274 32.98945435 -3.37862549 32.10390869 -3.38049316 31.19152832 C-3.37405185 3.37405185 -3.37405185 3.37405185 0 0 Z " fill="#210A01" transform="translate(191,515)"/>
<path d="M0 0 C3.81529478 2.54352985 4.07340579 4.38485528 5.5 8.6875 C6.73308434 12.36699207 7.9758109 15.94485132 9.53515625 19.5 C19.4600104 43.21378484 19.38093925 73.19906271 19.3125 98.5 C19.30881409 99.92659943 19.30881409 99.92659943 19.30505371 101.38201904 C19.29236862 104.11945049 19.26878631 106.8564627 19.23828125 109.59375 C19.23071304 110.39668488 19.22314484 111.19961975 19.21534729 112.02688599 C19.12191475 117.7245236 18.64138322 123.3389685 18 129 C17.67 129 17.34 129 17 129 C16.1442658 119.42806931 15.92864612 110.0129456 16.03991699 100.41516113 C16.37236742 67.62117237 13.38854525 36.15590943 0.91796875 5.57421875 C0 3 0 3 0 0 Z " fill="#1C0802" transform="translate(713,403)"/>
<path d="M0 0 C10.92281158 6.34095803 14.8756134 16.44852717 18.0234375 28.0859375 C17.3634375 28.7459375 16.7034375 29.4059375 16.0234375 30.0859375 C15.82709717 29.56161133 15.63075684 29.03728516 15.4284668 28.49707031 C14.52931871 26.1074449 13.62024111 23.72171599 12.7109375 21.3359375 C12.40220703 20.5109375 12.09347656 19.6859375 11.77539062 18.8359375 C10.23120631 14.8048037 8.78709236 11.45334465 6.0234375 8.0859375 C6.0234375 7.4259375 6.0234375 6.7659375 6.0234375 6.0859375 C0.95052077 3.45553623 -3.13438919 1.47737778 -8.9765625 2.0859375 C-12.78570069 3.81736395 -14.41279396 5.25196112 -15.9765625 9.0859375 C-17.39116013 16.74380736 -15.13425421 23.19913597 -12.47387695 30.24487305 C-10.38883209 35.79012714 -8.6726417 41.35706981 -7.1640625 47.0859375 C-6.9575708 47.85035156 -6.7510791 48.61476563 -6.53833008 49.40234375 C-5.18800363 54.61990081 -4.47172439 59.71902148 -3.9765625 65.0859375 C-6.19114522 61.76406342 -6.91485888 58.71653662 -7.7890625 54.8984375 C-9.15788775 49.19293977 -10.65960684 43.56038082 -12.4140625 37.9609375 C-12.6188623 37.3019043 -12.82366211 36.64287109 -13.03466797 35.96386719 C-14.07428509 32.68774249 -15.19391331 29.47442379 -16.4765625 26.28515625 C-19.26756816 19.22421531 -21.08496462 14.26741826 -17.9765625 7.0859375 C-17.5846875 6.1371875 -17.1928125 5.1884375 -16.7890625 4.2109375 C-12.66457647 -0.62466682 -5.87457678 -2.71670152 0 0 Z " fill="#250B03" transform="translate(472.9765625,329.9140625)"/>
<path d="M0 0 C2.39999321 6.01498299 -1.68238527 13.31257623 -4 19 C-9.12810029 30.44563076 -15.02544822 38.77063537 -26 45 C-32.08952326 47.02984109 -39.51337029 47.10375556 -45.640625 45.1640625 C-57.22114444 39.13085482 -64.69803546 28.1228877 -68.5546875 15.91015625 C-69 14 -69 14 -69 11 C-68.34 11 -67.68 11 -67 11 C-66.78085937 11.66644531 -66.56171875 12.33289063 -66.3359375 13.01953125 C-62.29082995 24.77665278 -57.8024834 35.02154627 -46.6171875 41.34765625 C-40.4700581 44.18998097 -35.57009589 44.36236102 -29 43 C-28.29101562 42.86078125 -27.58203125 42.7215625 -26.8515625 42.578125 C-24.73348524 42.12147438 -24.73348524 42.12147438 -22 41 C-21.67 40.01 -21.34 39.02 -21 38 C-20.113125 37.319375 -19.22625 36.63875 -18.3125 35.9375 C-9.71009692 29.04322959 -4.2364303 15.51228663 -2.45703125 4.875 C-2 3 -2 3 0 0 Z " fill="#1F0801" transform="translate(386,506)"/>
<path d="M0 0 C5.46006577 5.46006577 3.24422444 18.03288594 3.25 25.5 C3.25101212 26.67067017 3.25101212 26.67067017 3.25204468 27.86499023 C3.2186033 52.27032036 0.05310288 75.5791623 -10 98 C-11.03925278 100.65402801 -12.02175737 103.32270438 -13 106 C-13.66 105.67 -14.32 105.34 -15 105 C-13.49184862 100.41365181 -11.95352721 95.84286872 -10.31640625 91.30078125 C-3.56708446 72.28290355 0.21502304 52.83198558 0.09765625 32.6171875 C0.09553383 31.20676682 0.09553383 31.20676682 0.09336853 29.76785278 C0.08783008 26.80353432 0.07528962 23.83929512 0.0625 20.875 C0.05747703 18.84895943 0.05291553 16.82291767 0.04882812 14.796875 C0.03788092 9.86455341 0.02065981 4.93229008 0 0 Z " fill="#260E06" transform="translate(824,514)"/>
<path d="M0 0 C0.99 0 1.98 0 3 0 C3.04703192 8.80819355 3.08221914 17.61634172 3.10362434 26.42463493 C3.11391491 30.51783664 3.12779195 34.61095044 3.15087891 38.70410156 C3.27494959 61.30836642 2.57035914 83.51441731 0 106 C-0.33 106 -0.66 106 -1 106 C-1.05876776 97.49346086 -0.90163078 89.02515718 -0.52734375 80.52734375 C-0.43001426 78.15489973 -0.33352911 75.78242096 -0.23779297 73.40991211 C-0.18830505 72.18803192 -0.13881714 70.96615173 -0.08782959 69.70724487 C0.84126717 46.40871967 1.19869553 23.28928008 0 0 Z " fill="#2F1508" transform="translate(620,393)"/>
<path d="M0 0 C2.45931889 1.01245952 4.90452043 1.90091258 7.43359375 2.71875 C17.34528142 5.95159437 26.32665355 10.01415537 34.80859375 16.15625 C34.80859375 16.81625 34.80859375 17.47625 34.80859375 18.15625 C35.46859375 18.15625 36.12859375 18.15625 36.80859375 18.15625 C37.79859375 20.13625 37.79859375 20.13625 38.80859375 22.15625 C38.14859375 22.81625 37.48859375 23.47625 36.80859375 24.15625 C36.27234375 23.24617188 35.73609375 22.33609375 35.18359375 21.3984375 C28.11647566 10.86571343 10.14962404 6.3868177 -1.19140625 2.15625 C-2.07296387 1.82141602 -2.95452148 1.48658203 -3.86279297 1.14160156 C-19.40788698 -5.44827736 -19.40788698 -5.44827736 -35.62890625 -4.65625 C-38.10946436 -2.9017089 -40.16488354 -1.10410226 -42.19140625 1.15625 C-42.06640625 -1.09375 -42.06640625 -1.09375 -41.19140625 -3.84375 C-28.42497371 -13.83487112 -13.14352563 -5.60608115 0 0 Z " fill="#1D0600" transform="translate(565.19140625,341.84375)"/>
<path d="M0 0 C0.66 0 1.32 0 2 0 C-0.96112912 12.09127725 -5.12006659 23.75444841 -10.890625 34.796875 C-12.14480914 37.19274166 -12.14480914 37.19274166 -13.375 40.625 C-16.05776149 46.19688925 -19.84326966 51.31158131 -25.5625 54 C-29.89136766 55.25930695 -32.83249976 56.00515756 -37.046875 54.05078125 C-42.92425953 50.65090735 -45.91760699 46.90364314 -47.7265625 40.24609375 C-48.34252493 35.18640237 -47.5610789 30.04212793 -47 25 C-46.67 25 -46.34 25 -46 25 C-45.89042969 26.22976563 -45.78085937 27.45953125 -45.66796875 28.7265625 C-45.50843514 30.35943595 -45.34824407 31.99224526 -45.1875 33.625 C-45.11724609 34.43324219 -45.04699219 35.24148438 -44.97460938 36.07421875 C-44.47775199 40.96329544 -43.67847824 44.75634743 -41 49 C-36.66679269 51.95445953 -33.18502419 52.71517575 -28 52 C-21.98149343 50.14722031 -19.14230053 46.1428619 -16.125 40.8125 C-9.45888194 27.88589641 -4.53757773 13.79510351 0 0 Z " fill="#210901" transform="translate(485,528)"/>
<path d="M0 0 C0.33 0 0.66 0 1 0 C0.9278125 0.94617188 0.855625 1.89234375 0.78125 2.8671875 C-1.13889667 29.43262093 0.84641355 53.12614228 11 78 C10.01 78.495 10.01 78.495 9 79 C-2.93682397 56.40529749 -7.72021903 26.85225317 -0.65625 1.96484375 C-0.4396875 1.31644531 -0.223125 0.66804688 0 0 Z " fill="#2A1106" transform="translate(287,466)"/>
<path d="M0 0 C2.60361672 2.60361672 2.69051017 4.45911724 3.40234375 8.0625 C3.65161621 9.3218335 3.90088867 10.58116699 4.15771484 11.87866211 C4.41878306 13.25222525 4.67868458 14.62601059 4.9375 16 C5.06972961 16.69239777 5.20195923 17.38479553 5.3381958 18.09817505 C8.90821972 36.89046698 11.78213887 55.82311374 11 75 C8.18273031 72.18273031 8.47557324 69.29220511 8.21875 65.5 C8.15973511 64.74968506 8.10072021 63.99937012 8.03991699 63.22631836 C7.85131979 60.81811551 7.67466704 58.40925038 7.5 56 C6.61960376 42.93747021 6.61960376 42.93747021 4.45507812 30.04443359 C3.77580483 26.9928056 3.39939057 23.91134287 3 20.8125 C2.4983188 17.13350452 2.00690487 13.60169552 0.875 10.0625 C-0.11494094 6.59770671 -0.14633879 3.58530035 0 0 Z " fill="#250B02" transform="translate(424,430)"/>
<path d="M0 0 C3.77332538 2.6832536 5.10949383 5.78255531 6.8125 10 C5.8225 10 4.8325 10 3.8125 10 C2.8359375 8.20963542 1.859375 6.41927083 0.8828125 4.62890625 C-0.10160024 2.83381685 -0.10160024 2.83381685 -2.1875 2 C-8.00095947 1.46634487 -8.00095947 1.46634487 -13.125 3.875 C-16.55350846 7.40740266 -16.57453089 10.0526788 -16.546875 14.81640625 C-15.94259877 20.16950548 -14.13108098 25.12298766 -12.43359375 30.21484375 C-10.37882238 36.45645332 -8.8474385 42.36880079 -9.1875 49 C-11.49241669 46.69508331 -11.6884732 45.58644754 -12.37109375 42.45703125 C-12.57669922 41.54759766 -12.78230469 40.63816406 -12.99414062 39.70117188 C-13.20232422 38.74791016 -13.41050781 37.79464844 -13.625 36.8125 C-15.19063017 29.3410047 -15.19063017 29.3410047 -17.81640625 22.203125 C-19.97704356 17.15548227 -19.99497373 12.39063482 -19.1875 7 C-17.58674456 3.69050165 -15.2692105 1.79325436 -12.3125 -0.375 C-7.96209739 -1.65453018 -4.29092299 -1.34617192 0 0 Z " fill="#250C03" transform="translate(707.1875,391)"/>
<path d="M0 0 C10.95679648 7.90696653 18.05731687 20.59585258 20.52734375 33.82421875 C20.76240933 35.87540744 20.89515508 37.93804985 21 40 C20.34 40 19.68 40 19 40 C18.82984375 39.24976563 18.6596875 38.49953125 18.484375 37.7265625 C15.05404513 23.23889275 9.96834434 9.41173851 -3.25 1.1875 C-9.72757088 -2.21215227 -15.14889539 -1.72802895 -22 0.375 C-25.20731506 1.3495491 -25.20731506 1.3495491 -27 4 C-27 3.01 -27 2.02 -27 1 C-18.06263778 -4.32804286 -9.36258774 -6.10603548 0 0 Z " fill="#210A01" transform="translate(366,423)"/>
<path d="M0 0 C2.23339982 3.71591522 2.82522847 7.66054883 3.5 11.875 C3.62673096 12.65222412 3.75346191 13.42944824 3.8840332 14.23022461 C4.88365151 20.65272478 5.58991318 27.09120601 6.1875 33.5625 C6.27128906 34.46532715 6.35507812 35.3681543 6.44140625 36.29833984 C6.92041699 41.88645435 7.07401787 47.39172281 7 53 C5.515 53.495 5.515 53.495 4 54 C2.96971956 51.54524486 1.95054496 49.08685649 0.9375 46.625 C0.64294922 45.92632812 0.34839844 45.22765625 0.04492188 44.5078125 C-0.69591098 42.69495092 -1.35396964 40.84876857 -2 39 C-1.67 38.34 -1.34 37.68 -1 37 C1.64465038 40.1254959 2.84414715 43.08788267 4 47 C4.24610436 40.84739106 3.49649783 35.08484637 2.578125 29.00390625 C1.9156015 24.53412609 1.38369068 20.05208763 0.875 15.5625 C0.74375732 14.44512451 0.74375732 14.44512451 0.60986328 13.30517578 C0.11183425 8.8389476 -0.08288986 4.49381468 0 0 Z " fill="#240B02" transform="translate(698,441)"/>
<path d="M0 0 C0.33 0 0.66 0 1 0 C0.9285376 0.88236328 0.8570752 1.76472656 0.78344727 2.67382812 C-0.10656219 14.95518127 -0.11443072 27.19144038 -0.0625 39.5 C-0.05747084 41.595051 -0.05291046 43.69010319 -0.04882812 45.78515625 C-0.03794422 50.85680062 -0.02075912 55.92838683 0 61 C-0.66 60.67 -1.32 60.34 -2 60 C-3.39441457 55.46164315 -3.16166512 50.70290585 -3.16796875 46 C-3.17129715 45.12786865 -3.17462555 44.2557373 -3.17805481 43.35717773 C-3.183109 41.51139857 -3.1854636 39.6656103 -3.18530273 37.81982422 C-3.18747095 35.03727498 -3.2055919 32.25513447 -3.22460938 29.47265625 C-3.25483469 19.87283962 -3.25419204 10.39576395 -1 1 C-0.67 0.67 -0.34 0.34 0 0 Z " fill="#2E1106" transform="translate(191,515)"/>
<path d="M0 0 C10.67567411 17.40404014 4.6113426 55.60145497 2 75 C1.01 74.67 0.02 74.34 -1 74 C-0.86722656 73.16339844 -0.73445313 72.32679688 -0.59765625 71.46484375 C0.73997088 62.64822115 1.5988384 53.91361512 2 45 C2.04253906 44.06285156 2.08507812 43.12570312 2.12890625 42.16015625 C2.3752549 30.71315559 1.32971984 18.80335593 -0.59375 7.515625 C-1.04316676 4.73269817 -0.71687821 2.70820658 0 0 Z " fill="#260C05" transform="translate(469,396)"/>
<path d="M0 0 C0.33 0 0.66 0 1 0 C1.11593506 0.83772949 1.23187012 1.67545898 1.35131836 2.53857422 C1.78275431 5.6437919 2.21733132 8.74854896 2.65405273 11.85302734 C2.84249087 13.19725185 3.0296726 14.5416531 3.21557617 15.88623047 C3.48286563 17.81784229 3.75503583 19.74877676 4.02734375 21.6796875 C4.18968506 22.84226074 4.35202637 24.00483398 4.51928711 25.20263672 C4.8515583 27.94417548 4.8515583 27.94417548 6 30 C7.65 23.73 9.3 17.46 11 11 C11.33 11 11.66 11 12 11 C11.61411174 21.01380022 9.46135018 30.33776952 7 40 C5.68 39.67 4.36 39.34 3 39 C2.5676912 34.73210031 2.14064911 30.46371451 1.71826172 26.19482422 C1.57416422 24.74579005 1.42868414 23.29689262 1.28173828 21.84814453 C1.06950908 19.75328352 0.86242871 17.65796416 0.65625 15.5625 C0.53056641 14.30566406 0.40488281 13.04882812 0.27539062 11.75390625 C-0.01400448 7.80910199 -0.04596936 3.95336457 0 0 Z " fill="#240A03" transform="translate(458,461)"/>
<path d="M0 0 C10.06139914 4.56384844 19.63853459 15.94022258 23.859375 25.91796875 C24.23578125 26.93503906 24.6121875 27.95210938 25 29 C25.47953125 30.17175781 25.9590625 31.34351563 26.453125 32.55078125 C29.97632314 41.61907346 30.616082 49.34804861 30 59 C29.67 59 29.34 59 29 59 C28.91363281 57.93523437 28.82726562 56.87046875 28.73828125 55.7734375 C27.70323031 44.58737384 25.48129971 34.85611261 20.33984375 24.73046875 C19 22 19 22 19 20 C18.34 20 17.68 20 17 20 C16.9175 19.38125 16.835 18.7625 16.75 18.125 C16.22739701 15.86046092 16.22739701 15.86046092 14.25 15.125 C10.9800978 13.4900489 9.28288874 10.80970922 7 8 C6.01 7.34 5.02 6.68 4 6 C4 5.34 4 4.68 4 4 C2.68 3.34 1.36 2.68 0 2 C0 1.34 0 0.68 0 0 Z " fill="#200800" transform="translate(592,332)"/>
<path d="M0 0 C0.33 0 0.66 0 1 0 C2.31313014 9.98906174 2.1519284 20.02617851 2.13037109 30.0793457 C2.12500665 33.05880812 2.13034348 36.03812025 2.13671875 39.01757812 C2.13605796 40.94010449 2.13477678 42.86263077 2.1328125 44.78515625 C2.13483673 45.66148209 2.13686096 46.53780792 2.13894653 47.44068909 C2.11690829 53.34605716 1.6866763 59.13535367 1 65 C0.67 65 0.34 65 0 65 C-0.91495451 54.7885658 -1.15665851 44.66762368 -1.13037109 34.42260742 C-1.12499951 31.93727544 -1.13035804 29.4521235 -1.13671875 26.96679688 C-1.14008863 17.92439839 -0.88637606 9.00610574 0 0 Z " fill="#3D1E0E" transform="translate(730,467)"/>
<path d="M0 0 C0.99 0.33 1.98 0.66 3 1 C2.3709375 1.7528125 1.741875 2.505625 1.09375 3.28125 C-11.19479756 18.37591985 -18.79447399 36.02384606 -23 55 C-23.33 55 -23.66 55 -24 55 C-24.98449735 45.81135807 -21.47801156 38.31417445 -18 30 C-17.73872314 29.37287109 -17.47744629 28.74574219 -17.20825195 28.09960938 C-13.69022702 19.76421928 -9.17124198 12.63329229 -3.76953125 5.3828125 C-2.46355765 3.6242167 -1.21506268 1.82259401 0 0 Z " fill="#1F0A02" transform="translate(312,410)"/>
<path d="M0 0 C3.3325708 2.70834304 4.68566711 6.33461973 6.3125 10.1875 C6.61663818 10.89511475 6.92077637 11.60272949 7.23413086 12.33178711 C9.57636258 17.84496518 11.7314874 23.4193745 13.78686523 29.04516602 C15.02735226 32.43739038 16.31226123 35.79673688 17.70703125 39.12890625 C17.98603271 39.79978271 18.26503418 40.47065918 18.55249023 41.16186523 C19.32666587 43.00963795 20.11218032 44.85264824 20.8984375 46.6953125 C22.00803727 50.0241118 22.22209821 52.52046132 22 56 C19.9742709 53.9742709 19.44089331 52.91097313 18.4753418 50.29150391 C18.19132004 49.52955719 17.90729828 48.76761047 17.6146698 47.98257446 C17.31257095 47.15559052 17.01047211 46.32860657 16.69921875 45.4765625 C16.38096634 44.62001068 16.06271393 43.76345886 15.7348175 42.88095093 C14.71385001 40.1308589 13.70025223 37.37812687 12.6875 34.625 C11.36126264 31.032667 10.0314874 27.44166284 8.69921875 23.8515625 C8.37976288 22.98871643 8.06030701 22.12587036 7.73117065 21.23687744 C5.57741555 15.45275313 3.29252323 9.75298343 0.82348633 4.09521484 C0 2 0 2 0 0 Z " fill="#230B03" transform="translate(674,421)"/>
<path d="M0 0 C0.99 0 1.98 0 3 0 C3.41894531 1.00160156 3.83789062 2.00320313 4.26953125 3.03515625 C5.93236259 6.91250141 7.78204797 10.67475157 9.6875 14.4375 C10.20425293 15.46641357 10.20425293 15.46641357 10.73144531 16.51611328 C12.53092402 20.09794056 14.34210954 23.67366091 16.16015625 27.24609375 C19.77915616 34.38284525 23.24888339 41.47062823 26 49 C25.01 49.495 25.01 49.495 24 50 C23.65855957 49.28158936 23.31711914 48.56317871 22.96533203 47.82299805 C21.35586966 44.44258788 19.74206828 41.06427659 18.125 37.6875 C17.83298706 37.07752167 17.54097412 36.46754333 17.2401123 35.83908081 C13.01721094 27.03296671 8.65605363 18.31788642 3.98486328 9.73901367 C3.60313965 9.03236572 3.22141602 8.32571777 2.828125 7.59765625 C2.3316748 6.69285522 2.3316748 6.69285522 1.82519531 5.76977539 C0.94038776 3.87215114 0.44374037 2.04204825 0 0 Z " fill="#230C02" transform="translate(637,342)"/>
<path d="M0 0 C0.33 0 0.66 0 1 0 C1.33 13.2 1.66 26.4 2 40 C-3.95142453 31.0728632 -2.22383952 17.38366668 -2 7 C-1.67 7 -1.34 7 -1 7 C-0.67 4.69 -0.34 2.38 0 0 Z " fill="#371507" transform="translate(315,476)"/>
<path d="M0 0 C4.85287068 1.573904 9.63205161 3.32282028 14.4140625 5.09765625 C18.0118353 6.35307244 21.30206013 7.11450319 25.109375 7.31640625 C25.86347656 7.35830078 26.61757813 7.40019531 27.39453125 7.44335938 C28.56048828 7.50233398 28.56048828 7.50233398 29.75 7.5625 C30.54277344 7.60568359 31.33554687 7.64886719 32.15234375 7.69335938 C34.10137815 7.79902991 36.05066748 7.89997966 38 8 C38 8.33 38 8.66 38 9 C25.01363399 12.2465915 11.35550135 8.21115105 0 2 C0 1.34 0 0.68 0 0 Z " fill="#150200" transform="translate(321,572)"/>
<path d="M0 0 C0.33 0 0.66 0 1 0 C1.33 8.25 1.66 16.5 2 25 C2.33 25 2.66 25 3 25 C2.67 30.61 2.34 36.22 2 42 C1.01 42.495 1.01 42.495 0 43 C0 28.81 0 14.62 0 0 Z " fill="#2C0800" transform="translate(549,485)"/>
<path d="M0 0 C3.77332538 2.6832536 5.10949383 5.78255531 6.8125 10 C5.8225 10 4.8325 10 3.8125 10 C2.8359375 8.20963542 1.859375 6.41927083 0.8828125 4.62890625 C-0.10160024 2.83381685 -0.10160024 2.83381685 -2.1875 2 C-7.22780201 1.48742691 -10.02316539 1.49760804 -14.1875 4.5 C-15.6725 5.7375 -15.6725 5.7375 -17.1875 7 C-17.1875 6.01 -17.1875 5.02 -17.1875 4 C-11.58928027 -1.00893344 -7.40402164 -2.32283032 0 0 Z " fill="#1A0600" transform="translate(707.1875,391)"/>
<path d="M0 0 C3.81529478 2.54352985 4.07340579 4.38485528 5.5 8.6875 C6.81449295 12.59465864 8.11958912 16.45121263 9.875 20.1875 C11 23 11 23 10 26 C7.3164819 24.65824095 7.27555418 23.50452012 6.30859375 20.703125 C6.00373047 19.8265625 5.69886719 18.95 5.38476562 18.046875 C5.07216797 17.12390625 4.75957031 16.2009375 4.4375 15.25 C4.12103516 14.3425 3.80457031 13.435 3.47851562 12.5 C2.04776059 8.34443124 0.79307519 4.33041177 0 0 Z " fill="#261003" transform="translate(713,403)"/>
<path d="M0 0 C3.48331435 3.01887244 4.79157144 5.56909529 6 10 C6.33 8.35 6.66 6.7 7 5 C9 7 9 7 9.1953125 9.1640625 C9.17210937 9.97617187 9.14890625 10.78828125 9.125 11.625 C9.10695313 12.44226563 9.08890625 13.25953125 9.0703125 14.1015625 C9.03550781 15.04128906 9.03550781 15.04128906 9 16 C8.01 16.33 7.02 16.66 6 17 C4.99580363 14.5433053 3.99649499 12.08481647 3 9.625 C2.71382812 8.92632812 2.42765625 8.22765625 2.1328125 7.5078125 C0 2.2265625 0 2.2265625 0 0 Z " fill="#250C03" transform="translate(696,478)"/>
<path d="M0 0 C4.71720634 4.28654844 6.58936154 9.20966245 9 15 C9.33644531 15.77730469 9.67289063 16.55460937 10.01953125 17.35546875 C11.53234337 21.03733569 12.21613306 23.2099963 11 27 C9.1607188 22.87762652 7.32958658 18.75168422 5.5 14.625 C4.97535156 13.449375 4.45070313 12.27375 3.91015625 11.0625 C3.41386719 9.94101562 2.91757812 8.81953125 2.40625 7.6640625 C1.94541016 6.62717285 1.48457031 5.5902832 1.00976562 4.52197266 C0 2 0 2 0 0 Z " fill="#1E0802" transform="translate(662,393)"/>
<path d="M0 0 C0.33 0 0.66 0 1 0 C1.19335938 1.01320313 1.38671875 2.02640625 1.5859375 3.0703125 C1.84874923 4.42191568 2.11178183 5.77347592 2.375 7.125 C2.50132812 7.79015625 2.62765625 8.4553125 2.7578125 9.140625 C3.37126159 12.26921535 4.08489558 15.25468673 5.09375 18.28125 C6.10730172 21.32190515 6.15160885 23.81621424 6 27 C1.43446314 22.43446314 0.22074301 13.8863821 -0.2578125 7.62890625 C-0.2511648 5.07286689 -0.18725219 2.54871039 0 0 Z " fill="#2B0F06" transform="translate(218,573)"/>
<path d="M0 0 C0.33 0 0.66 0 1 0 C1.86809439 5.20173095 2.12515348 10.16978816 2.0625 15.4375 C2.05798828 16.16904297 2.05347656 16.90058594 2.04882812 17.65429688 C2.03718148 19.43623419 2.01925191 21.21812863 2 23 C-1.58210393 19.41789607 -0.86917124 13.87039786 -1 9 C-0.82066665 5.94706328 -0.45432691 3.02884605 0 0 Z " fill="#130200" transform="translate(433,482)"/>
<path d="M0 0 C0.33 0 0.66 0 1 0 C1.33 10.23 1.66 20.46 2 31 C1.01 31 0.02 31 -1 31 C-0.67 20.77 -0.34 10.54 0 0 Z " fill="#2A0A01" transform="translate(522,544)"/>
<path d="M0 0 C3 2 3 2 3.6875 5.125 C3.790625 6.07375 3.89375 7.0225 4 8 C3.34 8 2.68 8 2 8 C1.67 7.01 1.34 6.02 1 5 C0.67 8.3 0.34 11.6 0 15 C-0.33 15 -0.66 15 -1 15 C-1.22304441 13.25181409 -1.4278645 11.50129677 -1.625 9.75 C-1.74101563 8.77546875 -1.85703125 7.8009375 -1.9765625 6.796875 C-2.00112537 3.86570607 -1.5312717 2.45471036 0 0 Z " fill="#341708" transform="translate(652,443)"/>
<path d="M0 0 C2.15307714 3.22961572 2.77234869 5.61127654 3.625 9.375 C3.88539063 10.49648438 4.14578125 11.61796875 4.4140625 12.7734375 C4.93013392 15.6152708 5.11846848 18.12444684 5 21 C0.72868035 14.59302052 -0.42104151 7.57874721 0 0 Z " fill="#1B0602" transform="translate(464,374)"/>
<path d="M0 0 C0.66 0 1.32 0 2 0 C1.51030705 6.61085476 -0.33442742 11.94977014 -3 18 C-4.32435978 14.02692066 -3.18129186 11.19025432 -2.0625 7.3125 C-1.76956055 6.2596582 -1.76956055 6.2596582 -1.47070312 5.18554688 C-0.98800864 3.45491056 -0.49499154 1.72715934 0 0 Z " fill="#210A01" transform="translate(490,509)"/>
<path d="M0 0 C-1 3 -1 3 -3.1875 4.1875 C-8.34222369 5.6766424 -12.16648637 5.27459465 -17 3 C-17 2.34 -17 1.68 -17 1 C-16.505 1.165 -16.01 1.33 -15.5 1.5 C-11.89708149 2.2205837 -8.68196905 2.17533186 -5 2 C-2 0 -2 0 0 0 Z " fill="#170100" transform="translate(718,573)"/>
<path d="M0 0 C1.485 0.99 1.485 0.99 3 2 C3.2487793 3.87939453 3.2487793 3.87939453 3.07421875 6.1328125 C3.01943359 6.93847656 2.96464844 7.74414062 2.90820312 8.57421875 C2.83537109 9.41597656 2.76253906 10.25773438 2.6875 11.125 C2.62626953 11.97449219 2.56503906 12.82398438 2.50195312 13.69921875 C2.34848609 15.80053665 2.17602278 17.90045124 2 20 C1.67 20 1.34 20 1 20 C0.29867087 13.29980211 -0.11044961 6.73742646 0 0 Z " fill="#4E280D" transform="translate(436,546)"/>
<path d="M0 0 C1.61725534 3.00950123 2.67582623 5.97103608 3.625 9.25 C3.88539063 10.14203125 4.14578125 11.0340625 4.4140625 11.953125 C4.60742188 12.62859375 4.80078125 13.3040625 5 14 C4.34 14.66 3.68 15.32 3 16 C2.29954544 14.08802961 1.615081 12.17019565 0.9375 10.25 C0.55464844 9.18265625 0.17179688 8.1153125 -0.22265625 7.015625 C-0.98010011 4.07719958 -1.07151741 2.77651052 0 0 Z " fill="#2B1307" transform="translate(194,592)"/>
<path d="M0 0 C0.66 0 1.32 0 2 0 C1.01 5.94 0.02 11.88 -1 18 C-1.33 18 -1.66 18 -2 18 C-3.04894965 13.37350684 -2.82806355 10.18102877 -1.5625 5.625 C-1.27503906 4.56539063 -0.98757812 3.50578125 -0.69140625 2.4140625 C-0.46324219 1.61742187 -0.23507813 0.82078125 0 0 Z " fill="#311808" transform="translate(220,503)"/>
<path d="M0 0 C0.66 0 1.32 0 2 0 C2.10251672 5.12583611 2.03590199 9.94997778 1 15 C-1.14699969 11.55824478 -1.09856795 9.2279708 -0.625 5.25 C-0.51414062 4.26515625 -0.40328125 3.2803125 -0.2890625 2.265625 C-0.19367187 1.51796875 -0.09828125 0.7703125 0 0 Z " fill="#170500" transform="translate(617,501)"/>
<path d="M0 0 C0.66 0.66 1.32 1.32 2 2 C1.2575 2.556875 0.515 3.11375 -0.25 3.6875 C-2.91707995 5.93027178 -4.91556232 8.22074975 -7 11 C-7.99 10.67 -8.98 10.34 -10 10 C-6.7 6.7 -3.4 3.4 0 0 Z " fill="#271207" transform="translate(383,318)"/>
<path d="M0 0 C-0.639375 0.309375 -1.27875 0.61875 -1.9375 0.9375 C-3.93610821 1.8345163 -3.93610821 1.8345163 -5 3 C-6.51469448 3.23192865 -8.03754562 3.41215238 -9.5625 3.5625 C-10.80193359 3.68818359 -10.80193359 3.68818359 -12.06640625 3.81640625 C-13.02353516 3.90728516 -13.02353516 3.90728516 -14 4 C-14 3.01 -14 2.02 -14 1 C-9.27616037 0.34843591 -4.78025483 -0.11950637 0 0 Z " fill="#290A01" transform="translate(688,672)"/>
<path d="M0 0 C0.33 0 0.66 0 1 0 C2.1732849 4.54647898 2.54128467 9.33027294 2 14 C1.34 14.66 0.68 15.32 0 16 C-0.19672365 14.27185839 -0.38196799 12.54240803 -0.5625 10.8125 C-0.71912109 9.36810547 -0.71912109 9.36810547 -0.87890625 7.89453125 C-0.99758751 5.05766623 -0.67765639 2.74576329 0 0 Z " fill="#3F2009" transform="translate(498,393)"/>
<path d="M0 0 C0.66 0 1.32 0 2 0 C1.03644647 9.41002278 1.03644647 9.41002278 0 14 C-0.33 14 -0.66 14 -1 14 C-1.02705729 12.22925083 -1.04642195 10.45838289 -1.0625 8.6875 C-1.07410156 7.70136719 -1.08570313 6.71523438 -1.09765625 5.69921875 C-1 3 -1 3 0 0 Z " fill="#200903" transform="translate(193,500)"/>
<path d="M0 0 C2 2 2 2 2.1953125 4.1640625 C2.16050781 5.38222656 2.16050781 5.38222656 2.125 6.625 C2.10695313 7.44226563 2.08890625 8.25953125 2.0703125 9.1015625 C2.04710937 9.72804688 2.02390625 10.35453125 2 11 C1.01 11.33 0.02 11.66 -1 12 C-0.67 8.04 -0.34 4.08 0 0 Z " fill="#381908" transform="translate(703,483)"/>
<path d="M0 0 C0.33 0 0.66 0 1 0 C1.21192221 5.19209404 0.5912689 9.126739 -1 14 C-1.66 14 -2.32 14 -3 14 C-2.67 11.03 -2.34 8.06 -2 5 C-1.34 5 -0.68 5 0 5 C0 3.35 0 1.7 0 0 Z " fill="#391D0A" transform="translate(499,466)"/>
<path d="M0 0 C0.66 0 1.32 0 2 0 C2.07654536 4.51617599 2.10228696 8.59085217 1 13 C-0.9078584 9.8250906 -1.1609041 7.89414789 -0.625 4.25 C-0.51414062 3.45078125 -0.40328125 2.6515625 -0.2890625 1.828125 C-0.19367187 1.22484375 -0.09828125 0.6215625 0 0 Z " fill="#3A1B09" transform="translate(642,522)"/>
<path d="M0 0 C0.66 0 1.32 0 2 0 C2.99 3.63 3.98 7.26 5 11 C4.01 11.495 4.01 11.495 3 12 C2.49440092 10.56445975 1.9957251 9.1264798 1.5 7.6875 C1.2215625 6.88699219 0.943125 6.08648438 0.65625 5.26171875 C0 3 0 3 0 0 Z " fill="#280F05" transform="translate(317,517)"/>
<path d="M0 0 C1.32 0 2.64 0 4 0 C4 0.66 4 1.32 4 2 C5.32 2.66 6.64 3.32 8 4 C8 5.98 8 7.96 8 10 C7.34 9.01 6.68 8.02 6 7 C4.08261501 4.54335048 2.20417817 2.20417817 0 0 Z " fill="#140400" transform="translate(592,542)"/>
<path d="M0 0 C0.33 0 0.66 0 1 0 C2.28571429 8.42857143 2.28571429 8.42857143 1 13 C0.67 13 0.34 13 0 13 C-0.98248196 8.94726192 -1.16017882 5.16464926 -1 1 C-0.67 0.67 -0.34 0.34 0 0 Z " fill="#331706" transform="translate(797,509)"/>
<path d="M0 0 C0.66 0.99 1.32 1.98 2 3 C1.3203125 5.26171875 1.3203125 5.26171875 0.125 7.6875 C-0.45894531 8.89986328 -0.45894531 8.89986328 -1.0546875 10.13671875 C-1.52261719 11.05904297 -1.52261719 11.05904297 -2 12 C-2.66 11.67 -3.32 11.34 -4 11 C-3.52269162 9.5410574 -3.04308958 8.08286504 -2.5625 6.625 C-2.29566406 5.81289063 -2.02882813 5.00078125 -1.75390625 4.1640625 C-1 2 -1 2 0 0 Z " fill="#1D0701" transform="translate(813,608)"/>
<path d="M0 0 C0.33 0.66 0.66 1.32 1 2 C0.00390625 4.1640625 0.00390625 4.1640625 -1.4375 6.625 C-1.91058594 7.44226563 -2.38367188 8.25953125 -2.87109375 9.1015625 C-3.24363281 9.72804688 -3.61617187 10.35453125 -4 11 C-4.65234375 9.234375 -4.65234375 9.234375 -5 7 C-4.00390625 5.078125 -4.00390625 5.078125 -2.5625 3.25 C-2.08941406 2.63640625 -1.61632812 2.0228125 -1.12890625 1.390625 C-0.75636719 0.93171875 -0.38382813 0.4728125 0 0 Z " fill="#1B0500" transform="translate(785,607)"/>
<path d="M0 0 C0.66 0.66 1.32 1.32 2 2 C1.9765625 4.3828125 1.9765625 4.3828125 1.625 7.125 C1.51414062 8.03507812 1.40328125 8.94515625 1.2890625 9.8828125 C1.19367187 10.58148438 1.09828125 11.28015625 1 12 C-1.69461986 7.95807022 -1.23200889 5.7948504 -1 1 C-0.67 0.67 -0.34 0.34 0 0 Z " fill="#280E02" transform="translate(689,397)"/>
<path d="M0 0 C1.78409802 3.06246747 2.22880021 5.22079273 2.125 8.75 C2.10695313 9.54921875 2.08890625 10.3484375 2.0703125 11.171875 C2.04710937 11.77515625 2.02390625 12.3784375 2 13 C-0.6224715 10.3775285 -0.64217954 8.64976873 -1 5 C-0.5625 2.125 -0.5625 2.125 0 0 Z " fill="#1A0400" transform="translate(469,396)"/>
<path d="M0 0 C0.33 0 0.66 0 1 0 C1.10815225 1.76949095 1.18566083 3.54087487 1.25 5.3125 C1.29640625 6.29863281 1.3428125 7.28476562 1.390625 8.30078125 C1 11 1 11 -3 14 C-2.01 9.38 -1.02 4.76 0 0 Z " fill="#220803" transform="translate(603,367)"/>
<path d="M0 0 C0.66 0 1.32 0 2 0 C0.33248852 3.94139078 -2.22710649 6.7892812 -5 10 C-5.66 9.34 -6.32 8.68 -7 8 C-6.21625 7.236875 -5.4325 6.47375 -4.625 5.6875 C-1.92742283 3.09108195 -1.92742283 3.09108195 0 0 Z " fill="#1A0700" transform="translate(280,372)"/>
<path d="M0 0 C0.66 0.66 1.32 1.32 2 2 C0.68 4.64 -0.64 7.28 -2 10 C-2.66 10 -3.32 10 -4 10 C-2.8905928 6.51329166 -1.73662334 3.22515763 0 0 Z " fill="#2B130A" transform="translate(296,436)"/>
<path d="M0 0 C-0.99 1.485 -0.99 1.485 -2 3 C-5.63 2.67 -9.26 2.34 -13 2 C-13 1.67 -13 1.34 -13 1 C-8.62426048 0.40667939 -4.42471556 -0.13827236 0 0 Z " fill="#280D01" transform="translate(368,701)"/>
<path d="M0 0 C-3.00617269 3.00617269 -5.82381598 2.59585316 -10 3 C-8 0 -8 0 -5.5625 -0.75 C-3 -1 -3 -1 0 0 Z " fill="#260901" transform="translate(561,577)"/>
<path d="M0 0 C0.33 0 0.66 0 1 0 C1.33 4.29 1.66 8.58 2 13 C-0.43773135 10.56226865 -0.61487376 9.38911094 -1 6 C-0.5625 2.6875 -0.5625 2.6875 0 0 Z " fill="#110200" transform="translate(286,504)"/>
<path d="M0 0 C0.33 0 0.66 0 1 0 C1.06058594 0.61488281 1.12117188 1.22976563 1.18359375 1.86328125 C1.26738281 2.67152344 1.35117187 3.47976563 1.4375 4.3125 C1.51871094 5.11300781 1.59992188 5.91351563 1.68359375 6.73828125 C1.95265693 9.16087179 1.95265693 9.16087179 3 12 C1.68 11.67 0.36 11.34 -1 11 C-0.67 7.37 -0.34 3.74 0 0 Z " fill="#441E0C" transform="translate(462,489)"/>
<path d="M0 0 C0.33 0 0.66 0 1 0 C1.86516528 4.49885947 2.30903272 7.01647791 0 11 C-0.19406478 9.35492782 -0.38007935 7.70890406 -0.5625 6.0625 C-0.66691406 5.14597656 -0.77132813 4.22945313 -0.87890625 3.28515625 C-0.91886719 2.53105469 -0.95882813 1.77695312 -1 1 C-0.67 0.67 -0.34 0.34 0 0 Z " fill="#381A09" transform="translate(429,451)"/>
<path d="M0 0 C0.66 0 1.32 0 2 0 C4.5393228 3.41831915 5.3636198 5.75776898 5 10 C2.35534962 6.8745041 1.15585285 3.91211733 0 0 Z " fill="#1C0500" transform="translate(403,425)"/>
<path d="M0 0 C-0.66 0 -1.32 0 -2 0 C-2 0.66 -2 1.32 -2 2 C-4.875 2.625 -4.875 2.625 -8 3 C-8.66 2.34 -9.32 1.68 -10 1 C-3.375 -1.125 -3.375 -1.125 0 0 Z " fill="#220900" transform="translate(707,669)"/>
<path d="M0 0 C1.125 1.625 1.125 1.625 2 4 C1.125 7.25 1.125 7.25 0 10 C-0.66 9.34 -1.32 8.68 -2 8 C-1.7578125 6.0546875 -1.7578125 6.0546875 -1.125 3.875 C-0.92132812 3.15054688 -0.71765625 2.42609375 -0.5078125 1.6796875 C-0.34023438 1.12539063 -0.17265625 0.57109375 0 0 Z " fill="#311608" transform="translate(610,551)"/>
<path d="M0 0 C2.72426311 2.35277269 3.8141763 4.62496331 5 8 C4.01 8.495 4.01 8.495 3 9 C1.68 6.36 0.36 3.72 -1 1 C-0.67 0.67 -0.34 0.34 0 0 Z " fill="#2C1303" transform="translate(430,373)"/>
<path d="M0 0 C1.1725131 0.95117134 2.33787015 1.91117009 3.5 2.875 C4.47453125 3.67550781 4.47453125 3.67550781 5.46875 4.4921875 C5.9740625 4.98976563 6.479375 5.48734375 7 6 C7 6.66 7 7.32 7 8 C3.6223242 6.87410807 2.28636808 5.68056948 0 3 C0 2.01 0 1.02 0 0 Z " fill="#100100" transform="translate(699,369)"/>
<path d="M0 0 C3.91402949 1.26941497 5.79072873 2.51167694 8 6 C4.65750371 5.40312566 2.53563658 4.26396123 0 2 C0 1.34 0 0.68 0 0 Z " fill="#1D0400" transform="translate(584,326)"/>
</svg>
